<?xml version="1.0" standalone="no"?>
<!DOCTYPE svg PUBLIC "-//W3C//DTD SVG 1.1//EN" "http://www.w3.org/Graphics/SVG/1.1/DTD/svg11.dtd" >
<svg xmlns="http://www.w3.org/2000/svg" xmlns:xlink="http://www.w3.org/1999/xlink" version="1.1">
<metadata>
Created by FontForge 20230101 at Thu Apr  2 19:15:12 2015
 By Unknown
Copyright (c) 2014 by David Kerkhoff. All rights reserved.
</metadata>
<defs>
<font id="KaikouraW00-Regular" horiz-adv-x="240" >
  <font-face 
    font-family="KaikouraW00-Regular"
    font-weight="400"
    font-stretch="normal"
    units-per-em="1000"
    panose-1="2 0 0 0 0 0 0 0 0 0"
    ascent="800"
    descent="-200"
    x-height="800"
    cap-height="800"
    bbox="-70 -242 1381 1142"
    underline-thickness="50"
    underline-position="-175"
    unicode-range="U+0020-F6C3"
  />
<missing-glyph horiz-adv-x="590" 
d="M520 0h-450v800h450v-800zM140 651v-498l114 249zM447 159v485l-111 -242zM198 100h193l-96 211zM295 492l95 208h-190z" />
    <glyph glyph-name=".notdef" horiz-adv-x="590" 
d="M520 0h-450v800h450v-800zM140 651v-498l114 249zM447 159v485l-111 -242zM198 100h193l-96 211zM295 492l95 208h-190z" />
    <glyph glyph-name=".null" horiz-adv-x="0" 
 />
    <glyph glyph-name="nonmarkingreturn" horiz-adv-x="333" 
 />
    <glyph glyph-name="space" unicode=" " horiz-adv-x="400" 
 />
    <glyph glyph-name="exclam" unicode="!" 
d="M170 200h-100v600h100v-600zM70 50q0 21 14.5 35.5t35.5 14.5t35.5 -14.5t14.5 -35.5t-14.5 -35.5t-35.5 -14.5t-35.5 14.5t-14.5 35.5z" />
    <glyph glyph-name="quotedbl" unicode="&#x22;" horiz-adv-x="398" 
d="M70 750q0 21 14.5 35.5t35.5 14.5t35.5 -14.5t14.5 -35.5l-23 -150h-51zM228 750q0 21 14.5 35.5t35.5 14.5t35.5 -14.5t14.5 -35.5l-23 -150h-51z" />
    <glyph glyph-name="numbersign" unicode="#" horiz-adv-x="781" 
d="M559 600l28 100h104l-28 -100h48v-100h-77l-57 -200h51v-100h-80l-29 -100h-104l29 100h-222l-29 -100h-104l29 100h-48v100h76l58 200h-45v100h73l29 100h104l-29 -100h223zM250 300h223l57 200h-222z" />
    <glyph glyph-name="dollar" unicode="$" horiz-adv-x="664" 
d="M282 0q-61 3 -113 28t-87 66l77 59q23 -26 54 -40t69 -17v345l-30 4q-40 4 -73.5 17.5t-57.5 36t-37.5 52t-13.5 65.5v5q1 37 17.5 69.5t43.5 57t62.5 38.5t74.5 14h6.5t7.5 -1v51h52v-61q44 -15 75 -49l-75 -58v-150q66 -12 115 -35.5t81.5 -57t48 -75t15.5 -88.5v-10
q-2 -51 -23 -96.5t-56 -81t-81.5 -58t-99.5 -28.5v-58h-52v56zM498 275q0 38 -13.5 65t-36 45.5t-52 30t-62.5 17.5v-335q33 5 62.5 20t51.5 37.5t35.5 51t14.5 61.5v7zM258 541q6 -1 12 -1.5t12 -0.5v170q-4 1 -14 1q-18 0 -36 -5.5t-32.5 -16t-23.5 -27t-9 -37.5v-5
q0 -33 23 -54t68 -24z" />
    <glyph glyph-name="percent" unicode="%" horiz-adv-x="1013" 
d="M444 0h-104l229 800h104zM70 600q0 41 16 77.5t43 63.5t63.5 43t77.5 16t77.5 -16t63.5 -43t43 -63.5t16 -77.5t-16 -77.5t-43 -63.5t-63.5 -43t-77.5 -16t-77.5 16t-63.5 43t-43 63.5t-16 77.5zM170 600q0 -42 29 -71t71 -29t71 29t29 71t-29 71t-71 29t-71 -29t-29 -71
zM543 200q0 41 16 77.5t43 63.5t63.5 43t77.5 16t77.5 -16t63.5 -43t43 -63.5t16 -77.5t-16 -77.5t-43 -63.5t-63.5 -43t-77.5 -16t-77.5 16t-63.5 43t-43 63.5t-16 77.5zM643 200q0 -42 29 -71t71 -29t71 29t29 71t-29 71t-71 29t-71 -29t-29 -71z" />
    <glyph glyph-name="ampersand" unicode="&#x26;" horiz-adv-x="773" 
d="M258 616q0 -30 21 -53.5t53 -24.5q2 0 4.5 -0.5t4.5 -0.5h9v-102h-17q-34 -1 -63.5 -15t-51 -36.5t-34 -52.5t-12.5 -63q0 -34 13 -64.5t35.5 -53.5t53 -36.5t65.5 -13.5q30 0 57 10.5t48.5 29.5t35.5 44t19 54q-56 -6 -103 4l1 99q17 -11 37.5 -13t41.5 1t42.5 8.5
t39.5 11.5q37 12 74 7t71 -19l-1 -102q-17 19 -42.5 25.5t-51.5 1.5q-2 -55 -24 -102.5t-58.5 -83t-84.5 -56t-102 -20.5q-56 0 -105 21t-85.5 57.5t-57.5 86t-21 105.5q0 74 32.5 135.5t94.5 96.5q-20 25 -30 52t-10 62q0 37 14 70.5t39 58.5t58.5 40t71.5 15
q50 0 91 -26.5t64 -68.5l-87 -51q-11 18 -29 29t-39 11q-34 0 -58 -21.5t-24 -56.5z" />
    <glyph glyph-name="quotesingle" unicode="'" 
d="M70 750q0 21 14.5 35.5t35.5 14.5t35.5 -14.5t14.5 -35.5l-23 -150h-51z" />
    <glyph glyph-name="parenleft" unicode="(" horiz-adv-x="390" 
d="M171 400q0 -62 10 -126t28.5 -116.5t46.5 -86t64 -33.5v-38q-52 0 -97.5 31.5t-79.5 85.5t-53.5 127t-19.5 156q0 82 19.5 155t53.5 127t79.5 86t97.5 32v-36q-36 -1 -64 -35t-46.5 -86.5t-28.5 -117t-10 -125.5z" />
    <glyph glyph-name="parenright" unicode=")" horiz-adv-x="390" 
d="M219 400q0 61 -10 125.5t-28.5 117t-46.5 86.5t-64 35v36q52 0 97.5 -32t79.5 -86t53.5 -127t19.5 -155q0 -83 -19.5 -156t-53.5 -127t-79.5 -85.5t-97.5 -31.5v38q36 0 64 33.5t46.5 86t28.5 116.5t10 126z" />
    <glyph glyph-name="asterisk" unicode="*" horiz-adv-x="524" 
d="M98 265q-11 16 -17 24.5t-8 13.5q-4 5 -3 6l151 91l-151 93l28 41l139 -91v157h49v-157l142 92l26 -42l-152 -93l152 -94l-27 -40q-3 1 -19 11q-14 8 -42 26t-80 52v-156h-49v156z" />
    <glyph glyph-name="plus" unicode="+" horiz-adv-x="540" 
d="M320 600v-150h150v-100h-150v-150h-100v150h-150v100h150v150h100z" />
    <glyph glyph-name="comma" unicode="," 
d="M70 50q0 21 14.5 35.5t35.5 14.5t35.5 -14.5t14.5 -35.5l-49 -150h-51v150z" />
    <glyph glyph-name="hyphen" unicode="-" horiz-adv-x="540" 
d="M70 450h400v-100h-400v100z" />
    <glyph glyph-name="period" unicode="." 
d="M70 50q0 21 14.5 35.5t35.5 14.5t35.5 -14.5t14.5 -35.5t-14.5 -35.5t-35.5 -14.5t-35.5 14.5t-14.5 35.5z" />
    <glyph glyph-name="slash" unicode="/" horiz-adv-x="473" 
d="M174 0h-104l229 800h104z" />
    <glyph glyph-name="zero" unicode="0" horiz-adv-x="786" 
d="M70 400q0 83 25.5 156t69.5 127t102.5 85.5t125.5 31.5t125.5 -31.5t102.5 -85.5t69.5 -127t25.5 -156t-25.5 -156t-69.5 -127t-102.5 -85.5t-125.5 -31.5t-125.5 31.5t-102.5 85.5t-69.5 127t-25.5 156zM170 400q0 -62 17.5 -116.5t47.5 -95.5t71 -64.5t88 -23.5
t88 23.5t71 64.5t47.5 95.5t17.5 116.5t-17.5 116.5t-47.5 95.5t-71 64.5t-88 23.5t-88 -23.5t-71 -64.5t-47.5 -95.5t-17.5 -116.5z" />
    <glyph glyph-name="one" unicode="1" horiz-adv-x="379" 
d="M209 0v595l-54 -94l-85 54l141 245h98v-800h-100z" />
    <glyph glyph-name="two" unicode="2" horiz-adv-x="626" 
d="M97 0l328 560q22 39 18 65.5t-23 42.5t-47 23t-54 7h-6q-24 -1 -48 -7.5t-46 -18t-41.5 -26.5t-32.5 -32l-75 62q41 57 104.5 87.5t138.5 35.5q5 0 10.5 0.5t10.5 0.5q61 0 111.5 -18.5t79.5 -54t30 -87.5t-37 -119l-242 -421h279v-100h-458z" />
    <glyph glyph-name="three" unicode="3" horiz-adv-x="616" 
d="M278 435l1 102q15 0 28.5 6.5t24.5 17.5t17.5 25t6.5 30q0 35 -23.5 56.5t-54.5 21.5q-41 0 -64 -28l-91 48q25 38 65 62t90 24q37 0 69.5 -15t57 -40t38.5 -58.5t14 -70.5q0 -34 -10.5 -61.5t-29.5 -53.5q58 -35 93.5 -96.5t35.5 -134.5q0 -56 -21.5 -105.5t-58.5 -86
t-85.5 -57.5t-103.5 -21q-63 0 -116 25.5t-91 70.5l77 66q23 -29 56.5 -45.5t73.5 -16.5q34 0 64 13.5t52 36.5t34.5 53.5t12.5 64.5q0 33 -12 63.5t-33 53.5t-49.5 36.5t-61.5 13.5h-6z" />
    <glyph glyph-name="four" unicode="4" horiz-adv-x="752" 
d="M533 199h-463l282 601h112l-233 -501h302v301h100v-301h49v-100h-49v-199h-100v199z" />
    <glyph glyph-name="five" unicode="5" horiz-adv-x="616" 
d="M281 800h265v-100h-188l-47 -174q70 0 115.5 -22.5t72 -58.5t37 -82t10.5 -93q0 -56 -21.5 -105.5t-58.5 -86t-85.5 -57.5t-103.5 -21q-63 0 -116 25.5t-91 70.5l77 66q23 -29 56.5 -45.5t73.5 -16.5q34 0 64 13.5t52 36.5t34.5 53.5t12.5 64.5q0 54 -23 88t-60 54
t-82.5 28t-91.5 9z" />
    <glyph glyph-name="six" unicode="6" horiz-adv-x="741" 
d="M473 700q-81 0 -148.5 -38.5t-107.5 -102.5q34 20 72.5 31.5t81.5 11.5q62 0 117 -23.5t95.5 -64t64 -95.5t23.5 -117t-23.5 -117t-64 -95.5t-95.5 -64t-117 -23.5q-61 0 -115 22.5t-94.5 61.5t-64.5 92t-26 114v19v34.5v34.5v20q0 83 31.5 156t86 127t127.5 85.5
t157 31.5v-100zM171 300q0 -41 16 -77.5t43 -63.5t63.5 -43t77.5 -16t77.5 16t63.5 43t43 63.5t16 77.5t-16 77.5t-43 63.5t-63.5 43t-77.5 16t-77.5 -16t-63.5 -43t-43 -63.5t-16 -77.5z" />
    <glyph glyph-name="seven" unicode="7" horiz-adv-x="539" 
d="M70 800h399v-100l-192 -700h-105l193 700h-295v100z" />
    <glyph glyph-name="eight" unicode="8" horiz-adv-x="678" 
d="M157 616q0 37 14 70.5t39 58.5t58.5 40t71.5 15q37 0 69.5 -15t57 -40t38.5 -58.5t14 -70.5q0 -34 -10.5 -61.5t-29.5 -53.5q58 -35 93.5 -96.5t35.5 -134.5q0 -56 -21.5 -105.5t-58.5 -86t-85.5 -57.5t-103.5 -21q-56 0 -105 21t-85.5 57.5t-57.5 86t-21 105.5
q0 74 32.5 135.5t94.5 96.5q-20 25 -30 52t-10 62zM172 268q0 -34 13 -64.5t35.5 -53.5t53 -36.5t65.5 -13.5q34 0 64 13.5t52 36.5t34.5 53.5t12.5 64.5q0 33 -12 63.5t-33 53.5t-49.5 36.5t-61.5 13.5h-13q-34 -1 -63.5 -15t-51 -36.5t-34 -52.5t-12.5 -63zM258 616
q0 -30 21 -53.5t53 -24.5q2 0 4.5 -0.5t4.5 -0.5q15 0 28.5 6.5t24.5 17.5t17.5 25t6.5 30q0 35 -23.5 56.5t-54.5 21.5q-34 0 -58 -21.5t-24 -56.5z" />
    <glyph glyph-name="nine" unicode="9" horiz-adv-x="741" 
d="M268 102q81 0 148.5 38.5t107.5 102.5q-34 -20 -72.5 -31.5t-81.5 -11.5q-62 0 -117 23.5t-95.5 64t-64 95.5t-23.5 117t23.5 117t64 95.5t95.5 64t117 23.5q61 0 115 -22.5t94.5 -61.5t64.5 -92t26 -114v-19v-34.5v-34.5v-20q0 -83 -31.5 -156t-86 -127t-127.5 -85.5
t-157 -31.5v100zM570 502q0 41 -16 77.5t-43 63.5t-63.5 43t-77.5 16t-77.5 -16t-63.5 -43t-43 -63.5t-16 -77.5t16 -77.5t43 -63.5t63.5 -43t77.5 -16t77.5 16t63.5 43t43 63.5t16 77.5z" />
    <glyph glyph-name="colon" unicode=":" 
d="M70 598q0 21 14.5 35.5t35.5 14.5t35.5 -14.5t14.5 -35.5t-14.5 -35.5t-35.5 -14.5t-35.5 14.5t-14.5 35.5zM70 50q0 21 14.5 35.5t35.5 14.5t35.5 -14.5t14.5 -35.5t-14.5 -35.5t-35.5 -14.5t-35.5 14.5t-14.5 35.5z" />
    <glyph glyph-name="semicolon" unicode=";" 
d="M70 598q0 21 14.5 35.5t35.5 14.5t35.5 -14.5t14.5 -35.5t-14.5 -35.5t-35.5 -14.5t-35.5 14.5t-14.5 35.5zM70 50q0 21 14.5 35.5t35.5 14.5t35.5 -14.5t14.5 -35.5l-49 -150h-51v150z" />
    <glyph glyph-name="less" unicode="&#x3c;" horiz-adv-x="520" 
d="M329 800h118l-259 -398l262 -402h-119l-261 402z" />
    <glyph glyph-name="equal" unicode="=" horiz-adv-x="540" 
d="M70 550h400v-100h-400v100zM70 351h400v-100h-400v100z" />
    <glyph glyph-name="greater" unicode="&#x3e;" horiz-adv-x="520" 
d="M450 402l-261 -402h-119l262 402l-259 398h118z" />
    <glyph glyph-name="question" unicode="?" horiz-adv-x="616" 
d="M183 353q46 1 91.5 9t82.5 28t60 54t23 88q0 34 -12.5 64.5t-34.5 53.5t-52 36.5t-64 13.5q-40 0 -73.5 -16.5t-56.5 -45.5l-77 66q38 45 91 70.5t116 25.5q55 0 103.5 -21t85.5 -57.5t58.5 -86t21.5 -105.5q0 -47 -14.5 -93t-46 -82t-81 -58.5t-119.5 -22.5v-74h-103z
M184 50q0 21 14.5 35.5t35.5 14.5t35.5 -14.5t14.5 -35.5t-14.5 -35.5t-35.5 -14.5t-35.5 14.5t-14.5 35.5z" />
    <glyph glyph-name="at" unicode="@" horiz-adv-x="940" 
d="M170 399q0 -63 23.5 -117.5t64.5 -95.5t95.5 -64.5t117.5 -23.5q17 0 34 1.5t33 5.5l29 -94q-49 -11 -97 -11q-83 0 -156 31.5t-127 85.5t-85.5 127t-31.5 156t31.5 156t85.5 127t127 85.5t156 31.5t156 -31.5t127 -85.5t85.5 -127t31.5 -156q0 -58 -15.5 -111t-44.5 -99
h-292v10q-20 -8 -48 -8q-31 0 -58.5 12t-47.5 32t-32 47.5t-12 58.5t12 58t32 47.5t47.5 32.5t58.5 12q20 0 40 -6v8q0 16 -1 25t-6 13t-16.5 5t-32.5 1h-8q-19 -2 -50 -18v100q13 5 27.5 8.5t33.5 3.5q39 0 69.5 -3t50.5 -20.5t30.5 -55t10.5 -105.5v-158h134q20 52 20 109
q0 63 -23.5 117.5t-64.5 95.5t-95.5 64.5t-117.5 23.5t-117.5 -23.5t-95.5 -64.5t-64.5 -95.5t-23.5 -117.5zM420 342q0 -21 14.5 -35.5t35.5 -14.5q17 0 30 10t18 26v27q-5 16 -18 26.5t-30 10.5q-21 0 -35.5 -14.5t-14.5 -35.5z" />
    <glyph glyph-name="A" unicode="A" horiz-adv-x="732" 
d="M174 0h-104l294 800l298 -800h-104l-80 200h-225zM286 300h160l-82 233z" />
    <glyph glyph-name="B" unicode="B" horiz-adv-x="572" 
d="M70 0v800h103q42 0 79.5 -14t65.5 -38t44.5 -56.5t16.5 -69.5q0 -35 -14.5 -65t-39.5 -55q39 -17 72 -41t56 -54.5t36 -66t13 -74.5q0 -56 -26 -104.5t-70.5 -84.5t-104.5 -56.5t-128 -20.5h-103zM401 265q0 37 -18.5 68.5t-50 54.5t-73 36.5t-86.5 13.5v-339
q45 0 86.5 12t73 34t50 52.5t18.5 67.5zM279 622q0 37 -32 56.5t-74 19.5v-160h14q38 5 65 27.5t27 56.5z" />
    <glyph glyph-name="C" unicode="C" horiz-adv-x="839" 
d="M170 399q0 -63 23.5 -117.5t64.5 -95.5t95.5 -64.5t117.5 -23.5q68 0 125.5 27t99.5 74l73 -65q-56 -62 -132.5 -98t-166.5 -36q-83 0 -156 31.5t-127 85.5t-85.5 127t-31.5 156t31.5 156t85.5 127t127 85.5t156 31.5q90 0 166.5 -36t132.5 -98l-74 -66
q-42 47 -99.5 73.5t-124.5 26.5q-63 0 -117.5 -23.5t-95.5 -64.5t-64.5 -95.5t-23.5 -117.5z" />
    <glyph glyph-name="D" unicode="D" horiz-adv-x="640" 
d="M70 800h100q83 0 156 -31.5t127 -85.5t85.5 -127t31.5 -156t-31.5 -156t-85.5 -127t-127 -85.5t-156 -31.5h-100v800zM171 98q63 0 117.5 23.5t95.5 64.5t64.5 95.5t23.5 117.5t-23.5 117.5t-64.5 95.5t-95.5 64.5t-117.5 23.5v-602z" />
    <glyph glyph-name="E" unicode="E" horiz-adv-x="591" 
d="M70 800h450v-100h-350v-400h250v-100h-250v-100h351v-100h-451v800z" />
    <glyph glyph-name="F" unicode="F" horiz-adv-x="590" 
d="M70 800h450v-100h-350v-400h250v-100h-250v-200h-100v800z" />
    <glyph glyph-name="G" unicode="G" horiz-adv-x="861" 
d="M791 0h-100v70q-49 -33 -103.5 -51.5t-117.5 -18.5q-83 0 -156 31.5t-127 85.5t-85.5 127t-31.5 156t31.5 156t85.5 127t127 85.5t156 31.5q90 0 166.5 -36t132.5 -98l-74 -66q-42 47 -99.5 73.5t-124.5 26.5q-63 0 -117.5 -23.5t-95.5 -64.5t-64.5 -95.5t-23.5 -117.5
t23.5 -117.5t64.5 -95.5t95.5 -64.5t117.5 -23.5q68 0 123 27t97 74h-271v100l371 1v-300z" />
    <glyph glyph-name="H" unicode="H" horiz-adv-x="640" 
d="M470 200h-300v-200h-100v800h100v-500h300v500h100v-800h-100v200z" />
    <glyph glyph-name="I" unicode="I" 
d="M70 800h100v-800h-100v800z" />
    <glyph glyph-name="J" unicode="J" horiz-adv-x="541" 
d="M170 200q0 -42 29 -71t71 -29t71 29t29 71l1 600h100l-1 -600q0 -41 -16 -77.5t-43 -63.5t-63.5 -43t-77.5 -16t-77.5 16t-63.5 43t-43 63.5t-16 77.5h100z" />
    <glyph glyph-name="K" unicode="K" horiz-adv-x="644" 
d="M70 800h100v-501l288 501h116l-230 -400l230 -400h-116l-172 299l-116 -202v-97h-100v800z" />
    <glyph glyph-name="L" unicode="L" horiz-adv-x="541" 
d="M70 800h100v-700h301v-100h-401v800z" />
    <glyph glyph-name="M" unicode="M" horiz-adv-x="804" 
d="M734 0h-100v500l-232 -300l-232 300v-500h-100v800l332 -437l332 437v-800z" />
    <glyph glyph-name="N" unicode="N" horiz-adv-x="689" 
d="M170 603v-603h-100v800h102l347 -599v599h100v-800h-100z" />
    <glyph glyph-name="O" unicode="O" horiz-adv-x="940" 
d="M70 400q0 83 31.5 156t85.5 127t127 85.5t156 31.5t156 -31.5t127 -85.5t85.5 -127t31.5 -156t-31.5 -156t-85.5 -127t-127 -85.5t-156 -31.5t-156 31.5t-127 85.5t-85.5 127t-31.5 156zM170 399q0 -63 23.5 -117.5t64.5 -95.5t95.5 -64.5t117.5 -23.5t117.5 23.5
t95.5 64.5t64.5 95.5t23.5 117.5t-23.5 117.5t-64.5 95.5t-95.5 64.5t-117.5 23.5t-117.5 -23.5t-95.5 -64.5t-64.5 -95.5t-23.5 -117.5z" />
    <glyph glyph-name="P" unicode="P" horiz-adv-x="556" 
d="M70 800l100 -1q5 1 16 1q62 0 117 -23.5t95.5 -64t64 -95.5t23.5 -117t-23.5 -117t-64 -95.5t-95.5 -64t-117 -23.5h-16v-200h-100v800zM186 698q-11 0 -16 -1v-398h16q41 0 77.5 15.5t63.5 42.5t43 63.5t16 77.5t-16 77.5t-43 63.5t-63.5 43t-77.5 16z" />
    <glyph glyph-name="Q" unicode="Q" horiz-adv-x="940" 
d="M70 400q0 83 31.5 156t85.5 127t127 85.5t156 31.5t156 -31.5t127 -85.5t85.5 -127t31.5 -156q0 -71 -23 -134.5t-64 -114.5l87 -151h-116l-45 79q-51 -38 -111.5 -58.5t-127.5 -20.5q-83 0 -156 31.5t-127 85.5t-85.5 127t-31.5 156zM582 300h115l32 -56q20 34 31.5 73
t11.5 82q0 63 -23.5 117.5t-64.5 95.5t-95.5 64.5t-117.5 23.5t-117.5 -23.5t-95.5 -64.5t-64.5 -95.5t-23.5 -117.5t23.5 -117.5t64.5 -95.5t95.5 -64.5t117.5 -23.5q54 0 102 17.5t87 48.5z" />
    <glyph glyph-name="R" unicode="R" horiz-adv-x="556" 
d="M70 800l100 -1q5 1 16 1q62 0 117 -23.5t95.5 -64t64 -95.5t23.5 -117q0 -81 -39 -148t-103 -107l141 -245h-116l-119 207q-29 -7 -64 -7h-16v-200h-100v800zM186 698q-11 0 -16 -1v-398h16q41 0 77.5 15.5t63.5 42.5t43 63.5t16 77.5t-16 77.5t-43 63.5t-63.5 43
t-77.5 16z" />
    <glyph glyph-name="S" unicode="S" horiz-adv-x="664" 
d="M268 800q43 0 79.5 -16t61.5 -44l-74 -59q-13 14 -30.5 22t-39.5 8q-20 0 -37.5 -6.5t-31 -18t-21.5 -27.5t-8 -35v-5q0 -33 23 -54t68 -24q86 -5 149.5 -27t105 -57t61.5 -81t20 -100v-10q-2 -56 -26 -104.5t-64.5 -84.5t-93.5 -56.5t-113 -20.5q-66 0 -121.5 25.5
t-93.5 68.5l77 59q26 -29 61.5 -43t79.5 -14q39 0 74.5 13t62.5 36t43.5 54.5t17.5 68.5v7q0 50 -22.5 81.5t-58 49.5t-79 26.5t-86.5 12.5q-40 4 -73.5 17.5t-57.5 36t-37.5 52t-13.5 65.5v5q1 37 17.5 69.5t43.5 57t62.5 38.5t74.5 14z" />
    <glyph glyph-name="T" unicode="T" horiz-adv-x="540" 
d="M70 800h400v-100h-150v-700h-100v700h-150v100z" />
    <glyph glyph-name="U" unicode="U" horiz-adv-x="788" 
d="M170 400q0 -62 17.5 -116.5t47.5 -95.5t71 -64.5t88 -23.5t88 23.5t71 64.5t47.5 95.5t17.5 116.5v400h100l-2 -400q0 -83 -25.5 -156t-69.5 -127t-102.5 -85.5t-125.5 -31.5t-125.5 31.5t-102.5 85.5t-69.5 127t-25.5 156v400h100v-400v0z" />
    <glyph glyph-name="V" unicode="V" horiz-adv-x="732" 
d="M174 800l190 -533l194 533h104l-298 -800l-294 800h104z" />
    <glyph glyph-name="W" unicode="W" horiz-adv-x="1064" 
d="M890 800h104l-298 -800l-167 300l-161 -300l-298 800h104l210 -556l141 261l152 -261z" />
    <glyph glyph-name="X" unicode="X" horiz-adv-x="782" 
d="M73 800h118l200 -308l200 308h118l-259 -398l262 -402h-119l-202 311l-203 -311h-118l262 402z" />
    <glyph glyph-name="Y" unicode="Y" horiz-adv-x="776" 
d="M441 0h-100v205l-271 595h113l207 -464l206 464h110l-265 -601v-199z" />
    <glyph glyph-name="Z" unicode="Z" horiz-adv-x="596" 
d="M526 0h-456v100l346 600h-346v100h456v-101l-340 -599h340v-100z" />
    <glyph glyph-name="bracketleft" unicode="[" horiz-adv-x="290" 
d="M70 800h150v-54h-50v-690h50v-56h-150v800z" />
    <glyph glyph-name="backslash" unicode="\" horiz-adv-x="473" 
d="M70 800h104l229 -800h-104z" />
    <glyph glyph-name="bracketright" unicode="]" horiz-adv-x="290" 
d="M220 0h-150v56h50v690h-50v54h150v-800z" />
    <glyph glyph-name="asciicircum" unicode="^" horiz-adv-x="436" 
d="M169 400h-99l147 400l149 -400h-101l-48 133z" />
    <glyph glyph-name="underscore" unicode="_" horiz-adv-x="676" 
d="M70 49h536v-50h-536v50z" />
    <glyph glyph-name="grave" unicode="`" horiz-adv-x="398" 
d="M207 940l121 -100h-135l-123 100h137z" />
    <glyph glyph-name="a" unicode="a" horiz-adv-x="732" 
d="M174 0h-104l294 800l298 -800h-104l-80 200h-225zM286 300h160l-82 233z" />
    <glyph glyph-name="b" unicode="b" horiz-adv-x="572" 
d="M70 0v800h103q42 0 79.5 -14t65.5 -38t44.5 -56.5t16.5 -69.5q0 -35 -14.5 -65t-39.5 -55q39 -17 72 -41t56 -54.5t36 -66t13 -74.5q0 -56 -26 -104.5t-70.5 -84.5t-104.5 -56.5t-128 -20.5h-103zM401 265q0 37 -18.5 68.5t-50 54.5t-73 36.5t-86.5 13.5v-339
q45 0 86.5 12t73 34t50 52.5t18.5 67.5zM279 622q0 37 -32 56.5t-74 19.5v-160h14q38 5 65 27.5t27 56.5z" />
    <glyph glyph-name="c" unicode="c" horiz-adv-x="839" 
d="M170 399q0 -63 23.5 -117.5t64.5 -95.5t95.5 -64.5t117.5 -23.5q68 0 125.5 27t99.5 74l73 -65q-56 -62 -132.5 -98t-166.5 -36q-83 0 -156 31.5t-127 85.5t-85.5 127t-31.5 156t31.5 156t85.5 127t127 85.5t156 31.5q90 0 166.5 -36t132.5 -98l-74 -66
q-42 47 -99.5 73.5t-124.5 26.5q-63 0 -117.5 -23.5t-95.5 -64.5t-64.5 -95.5t-23.5 -117.5z" />
    <glyph glyph-name="d" unicode="d" horiz-adv-x="640" 
d="M70 800h100q83 0 156 -31.5t127 -85.5t85.5 -127t31.5 -156t-31.5 -156t-85.5 -127t-127 -85.5t-156 -31.5h-100v800zM171 98q63 0 117.5 23.5t95.5 64.5t64.5 95.5t23.5 117.5t-23.5 117.5t-64.5 95.5t-95.5 64.5t-117.5 23.5v-602z" />
    <glyph glyph-name="e" unicode="e" horiz-adv-x="591" 
d="M70 800h450v-100h-350v-400h250v-100h-250v-100h351v-100h-451v800z" />
    <glyph glyph-name="f" unicode="f" horiz-adv-x="590" 
d="M70 800h450v-100h-350v-400h250v-100h-250v-200h-100v800z" />
    <glyph glyph-name="g" unicode="g" horiz-adv-x="861" 
d="M791 0h-100v70q-49 -33 -103.5 -51.5t-117.5 -18.5q-83 0 -156 31.5t-127 85.5t-85.5 127t-31.5 156t31.5 156t85.5 127t127 85.5t156 31.5q90 0 166.5 -36t132.5 -98l-74 -66q-42 47 -99.5 73.5t-124.5 26.5q-63 0 -117.5 -23.5t-95.5 -64.5t-64.5 -95.5t-23.5 -117.5
t23.5 -117.5t64.5 -95.5t95.5 -64.5t117.5 -23.5q68 0 123 27t97 74h-271v100l371 1v-300z" />
    <glyph glyph-name="h" unicode="h" horiz-adv-x="640" 
d="M470 200h-300v-200h-100v800h100v-500h300v500h100v-800h-100v200z" />
    <glyph glyph-name="i" unicode="i" 
d="M70 800h100v-800h-100v800z" />
    <glyph glyph-name="j" unicode="j" horiz-adv-x="541" 
d="M170 200q0 -42 29 -71t71 -29t71 29t29 71l1 600h100l-1 -600q0 -41 -16 -77.5t-43 -63.5t-63.5 -43t-77.5 -16t-77.5 16t-63.5 43t-43 63.5t-16 77.5h100z" />
    <glyph glyph-name="k" unicode="k" horiz-adv-x="644" 
d="M70 800h100v-501l288 501h116l-230 -400l230 -400h-116l-172 299l-116 -202v-97h-100v800z" />
    <glyph glyph-name="l" unicode="l" horiz-adv-x="541" 
d="M70 800h100v-700h301v-100h-401v800z" />
    <glyph glyph-name="m" unicode="m" horiz-adv-x="804" 
d="M734 0h-100v500l-232 -300l-232 300v-500h-100v800l332 -437l332 437v-800z" />
    <glyph glyph-name="n" unicode="n" horiz-adv-x="689" 
d="M170 603v-603h-100v800h102l347 -599v599h100v-800h-100z" />
    <glyph glyph-name="o" unicode="o" horiz-adv-x="740" 
d="M70 500q0 62 23.5 117t64 95.5t95.5 64t117 23.5t117 -23.5t95.5 -64t64 -95.5t23.5 -117t-23.5 -117t-64 -95.5t-95.5 -64t-117 -23.5t-117 23.5t-95.5 64t-64 95.5t-23.5 117zM170 498q0 -41 16 -77.5t43 -63.5t63.5 -43t77.5 -16t77.5 16t63.5 43t43 63.5t16 77.5
t-16 77.5t-43 63.5t-63.5 43t-77.5 16t-77.5 -16t-63.5 -43t-43 -63.5t-16 -77.5zM170 100h400v-100h-400v100z" />
    <glyph glyph-name="p" unicode="p" horiz-adv-x="556" 
d="M70 800l100 -1q5 1 16 1q62 0 117 -23.5t95.5 -64t64 -95.5t23.5 -117t-23.5 -117t-64 -95.5t-95.5 -64t-117 -23.5h-16v-200h-100v800zM186 698q-11 0 -16 -1v-398h16q41 0 77.5 15.5t63.5 42.5t43 63.5t16 77.5t-16 77.5t-43 63.5t-63.5 43t-77.5 16z" />
    <glyph glyph-name="q" unicode="q" horiz-adv-x="940" 
d="M70 400q0 83 31.5 156t85.5 127t127 85.5t156 31.5t156 -31.5t127 -85.5t85.5 -127t31.5 -156q0 -71 -23 -134.5t-64 -114.5l87 -151h-116l-45 79q-51 -38 -111.5 -58.5t-127.5 -20.5q-83 0 -156 31.5t-127 85.5t-85.5 127t-31.5 156zM582 300h115l32 -56q20 34 31.5 73
t11.5 82q0 63 -23.5 117.5t-64.5 95.5t-95.5 64.5t-117.5 23.5t-117.5 -23.5t-95.5 -64.5t-64.5 -95.5t-23.5 -117.5t23.5 -117.5t64.5 -95.5t95.5 -64.5t117.5 -23.5q54 0 102 17.5t87 48.5z" />
    <glyph glyph-name="r" unicode="r" horiz-adv-x="556" 
d="M70 800l100 -1q5 1 16 1q62 0 117 -23.5t95.5 -64t64 -95.5t23.5 -117q0 -81 -39 -148t-103 -107l141 -245h-116l-119 207q-29 -7 -64 -7h-16v-200h-100v800zM186 698q-11 0 -16 -1v-398h16q41 0 77.5 15.5t63.5 42.5t43 63.5t16 77.5t-16 77.5t-43 63.5t-63.5 43
t-77.5 16z" />
    <glyph glyph-name="s" unicode="s" horiz-adv-x="664" 
d="M268 800q43 0 79.5 -16t61.5 -44l-74 -59q-13 14 -30.5 22t-39.5 8q-20 0 -37.5 -6.5t-31 -18t-21.5 -27.5t-8 -35v-5q0 -33 23 -54t68 -24q86 -5 149.5 -27t105 -57t61.5 -81t20 -100v-10q-2 -56 -26 -104.5t-64.5 -84.5t-93.5 -56.5t-113 -20.5q-66 0 -121.5 25.5
t-93.5 68.5l77 59q26 -29 61.5 -43t79.5 -14q39 0 74.5 13t62.5 36t43.5 54.5t17.5 68.5v7q0 50 -22.5 81.5t-58 49.5t-79 26.5t-86.5 12.5q-40 4 -73.5 17.5t-57.5 36t-37.5 52t-13.5 65.5v5q1 37 17.5 69.5t43.5 57t62.5 38.5t74.5 14z" />
    <glyph glyph-name="t" unicode="t" horiz-adv-x="540" 
d="M70 800h400v-100h-150v-700h-100v700h-150v100z" />
    <glyph glyph-name="u" unicode="u" horiz-adv-x="788" 
d="M170 400q0 -62 17.5 -116.5t47.5 -95.5t71 -64.5t88 -23.5t88 23.5t71 64.5t47.5 95.5t17.5 116.5v400h100l-2 -400q0 -83 -25.5 -156t-69.5 -127t-102.5 -85.5t-125.5 -31.5t-125.5 31.5t-102.5 85.5t-69.5 127t-25.5 156v400h100v-400v0z" />
    <glyph glyph-name="v" unicode="v" horiz-adv-x="732" 
d="M174 800l190 -533l194 533h104l-298 -800l-294 800h104z" />
    <glyph glyph-name="w" unicode="w" horiz-adv-x="1064" 
d="M890 800h104l-298 -800l-167 300l-161 -300l-298 800h104l210 -556l141 261l152 -261z" />
    <glyph glyph-name="x" unicode="x" horiz-adv-x="782" 
d="M73 800h118l200 -308l200 308h118l-259 -398l262 -402h-119l-202 311l-203 -311h-118l262 402z" />
    <glyph glyph-name="y" unicode="y" horiz-adv-x="606" 
d="M311 375l117 425h108l-231 -800h-111l62 200l-186 600h111z" />
    <glyph glyph-name="z" unicode="z" horiz-adv-x="596" 
d="M526 0h-456v100l346 600h-346v100h456v-101l-340 -599h340v-100z" />
    <glyph glyph-name="braceleft" unicode="{" horiz-adv-x="296" 
d="M95 245q12 41 6.5 84.5t-31.5 71.5q25 27 30.5 70.5t-5.5 84.5q-8 30 -8.5 63.5t4 66t12 62t15.5 52.5h108q-7 -23 -14.5 -48.5t-12.5 -52t-6 -52t5 -47.5q14 -51 8.5 -101t-20.5 -97q16 -45 21.5 -96t-7.5 -102q-6 -23 -6 -49.5t4.5 -53t12 -52.5t15.5 -49h-110
q-8 28 -15 58t-11 61.5t-3.5 63.5t8.5 62z" />
    <glyph glyph-name="bar" unicode="|" 
d="M70 800h100v-800h-100v800z" />
    <glyph glyph-name="braceright" unicode="}" horiz-adv-x="296" 
d="M201 245q8 -30 8.5 -62t-3.5 -63.5t-11 -61.5t-15 -58h-110q8 23 15.5 49t12 52.5t4.5 53t-6 49.5q-13 51 -7.5 102t21.5 96q-15 47 -20.5 97t8.5 101q6 22 5 47.5t-6 52t-12.5 52t-14.5 48.5h108q8 -23 15.5 -52.5t12 -62t4 -66t-8.5 -63.5q-6 -20 -7.5 -42t1.5 -42.5
t10.5 -39t20.5 -31.5q-26 -28 -31.5 -71.5t6.5 -84.5z" />
    <glyph glyph-name="exclamdown" unicode="&#xa1;" 
d="M70 600h100v-600h-100v600zM170 750q0 -21 -14.5 -35.5t-35.5 -14.5t-35.5 14.5t-14.5 35.5t14.5 35.5t35.5 14.5t35.5 -14.5t14.5 -35.5z" />
    <glyph glyph-name="sterling" unicode="&#xa3;" horiz-adv-x="640" 
d="M270 200h-50v-100h350v-100h-450v200h-50v100h50v300q0 41 16 77.5t43 63.5t63.5 43t77.5 16t77.5 -16t63.5 -43t43 -63.5t16 -77.5h-100q0 42 -29 71t-71 29t-71 -29t-29 -71v-300h50v-100z" />
    <glyph glyph-name="yen" unicode="&#xa5;" horiz-adv-x="776" 
d="M190 338h90l-210 462h113l208 -462l205 462h110l-204 -462h88v-100h-132l-17 -38h149v-100h-149v-100h-100v100h-151v100h151l-15 38h-136v100z" />
    <glyph glyph-name="brokenbar" unicode="&#xa6;" 
d="M70 300h100v-300h-100v300zM170 500h-100v300h100v-300z" />
    <glyph glyph-name="dieresis" unicode="&#xa8;" horiz-adv-x="430" 
d="M70 892q0 21 14.5 35.5t35.5 14.5t35.5 -14.5t14.5 -35.5t-14.5 -35.5t-35.5 -14.5t-35.5 14.5t-14.5 35.5zM260 891q0 21 14.5 35.5t35.5 14.5t35.5 -14.5t14.5 -35.5t-14.5 -35.5t-35.5 -14.5t-35.5 14.5t-14.5 35.5z" />
    <glyph glyph-name="copyright" unicode="&#xa9;" horiz-adv-x="542" 
d="M70 599q0 42 16 78.5t43 63.5t63.5 43t78.5 16t78.5 -16t63.5 -43t43 -63.5t16 -78.5t-16 -78.5t-43 -63.5t-63.5 -43t-78.5 -16t-78.5 16t-63.5 43t-43 63.5t-16 78.5zM120 598q0 -31 12 -58.5t32.5 -48t48 -32.5t59.5 -12q31 0 58.5 12t48 32.5t32.5 48t12 58.5t-12 59
t-32.5 48.5t-48 32.5t-58.5 12q-32 0 -59.5 -12t-48 -32.5t-32.5 -48.5t-12 -59zM179 597q0 -41 28 -69t69 -28q22 0 40.5 9t32.5 24l24 -21q-18 -20 -43 -32t-54 -12q-27 0 -50.5 10t-41.5 27.5t-28 41t-10 50.5t10 50.5t28 41.5t41.5 28t50.5 10q29 0 54 -11.5t43 -31.5
l-24 -22q-14 15 -32.5 24t-40.5 9q-41 0 -69 -28.5t-28 -69.5z" />
    <glyph glyph-name="ordfeminine" unicode="&#xaa;" horiz-adv-x="404" 
d="M334 500h-89v7q-20 -6 -42 -6q-28 0 -52 8t-42 22t-28.5 32.5t-10.5 39.5t10.5 39.5t28.5 32.5t42 22t52 8q9 0 18 -0.5t17 1.5q0 21 -9.5 25.5t-39.5 4.5q-13 0 -26 -3.5t-26 -8.5v68q11 4 24 6t30 2q35 0 61.5 -2t44.5 -14t27.5 -37.5t9.5 -71.5v-175zM159 603
q0 -14 12.5 -24t31.5 -10q15 0 26.5 7t15.5 18v18q-4 11 -15.5 18t-26.5 7q-19 0 -31.5 -10t-12.5 -24z" />
    <glyph glyph-name="guillemotleft" unicode="&#xab;" horiz-adv-x="573" 
d="M70 402l129 198h118l-129 -198l131 -202h-118zM254 402l129 198h118l-129 -198l131 -202h-118z" />
    <glyph glyph-name="registered" unicode="&#xae;" horiz-adv-x="540" 
d="M70 600q0 41 15.5 77.5t42.5 63.5t63.5 43t78.5 16q41 0 77.5 -16t63.5 -43t43 -63.5t16 -77.5q0 -42 -16 -78.5t-43 -63.5t-63.5 -42.5t-77.5 -15.5q-42 0 -78.5 15.5t-63.5 42.5t-42.5 63.5t-15.5 78.5zM270 750q-20 0 -39 -5.5t-36 -14.5l38 -1q2 1 7 1
q28 0 53.5 -8.5t44 -23t29.5 -34.5t11 -42q0 -29 -18 -53t-47 -38l41 -57q30 20 48.5 53t18.5 72q0 31 -12 59t-32 48t-48 32t-59 12zM120 599q0 -39 18 -72t49 -53v251q-31 -20 -49 -53t-18 -73zM233 693v-143h7q19 0 35.5 5.5t29 15.5t20 22.5t7.5 27.5q0 30 -27 51
t-65 21h-7zM270 449q23 0 44 6l-45 62q-14 -3 -29 -3h-7v-61q16 -4 37 -4z" />
    <glyph glyph-name="macron" unicode="&#xaf;" horiz-adv-x="440" 
d="M70 942h300v-84h-300v84z" />
    <glyph glyph-name="degree" unicode="&#xb0;" horiz-adv-x="440" 
d="M70 650q0 31 12 58t32 47.5t47.5 32.5t58.5 12t58 -12t47.5 -32.5t32.5 -47.5t12 -58t-12 -58.5t-32.5 -47.5t-47.5 -32t-58 -12t-58.5 12t-47.5 32t-32 47.5t-12 58.5zM170 650q0 -21 14.5 -35.5t35.5 -14.5t35.5 14.5t14.5 35.5t-14.5 35.5t-35.5 14.5t-35.5 -14.5
t-14.5 -35.5z" />
    <glyph glyph-name="plusminus" unicode="&#xb1;" horiz-adv-x="540" 
d="M320 600v-150h150v-100h-150v-150h-100v150h-150v100h150v150h100zM70 100h400v-100h-400v100z" />
    <glyph glyph-name="acute" unicode="&#xb4;" horiz-adv-x="398" 
d="M328 940l-123 -100h-135l121 100h137z" />
    <glyph glyph-name="periodcentered" unicode="&#xb7;" 
d="M70 400q0 21 14.5 35.5t35.5 14.5t35.5 -14.5t14.5 -35.5t-14.5 -35.5t-35.5 -14.5t-35.5 14.5t-14.5 35.5z" />
    <glyph glyph-name="cedilla" unicode="&#xb8;" horiz-adv-x="364" 
d="M294 12l-107 -160h-117l105 160h119z" />
    <glyph glyph-name="ordmasculine" unicode="&#xba;" horiz-adv-x="406" 
d="M70 650q0 31 10.5 58t28.5 47.5t42 32.5t52 12q27 0 51.5 -12t42.5 -32.5t28.5 -47.5t10.5 -58t-10.5 -58.5t-28.5 -47.5t-42.5 -32t-51.5 -12q-28 0 -52 12t-42 32t-28.5 47.5t-10.5 58.5zM159 650q0 -21 12.5 -35.5t31.5 -14.5t31.5 14.5t12.5 35.5t-12.5 35.5
t-31.5 14.5t-31.5 -14.5t-12.5 -35.5z" />
    <glyph glyph-name="guillemotright" unicode="&#xbb;" horiz-adv-x="573" 
d="M188 200h-118l131 202l-129 198h118l129 -198zM372 200h-118l131 202l-129 198h118l129 -198z" />
    <glyph glyph-name="questiondown" unicode="&#xbf;" horiz-adv-x="616" 
d="M433 447q-46 -1 -92 -9t-82.5 -28t-59.5 -54t-23 -88q0 -34 12.5 -64.5t34.5 -53.5t52 -36.5t64 -13.5q40 0 73.5 16.5t56.5 45.5l77 -66q-38 -45 -91 -70.5t-116 -25.5q-55 0 -104 21t-85.5 57.5t-58 86t-21.5 105.5q0 47 14.5 93t46 82t81 58.5t119.5 22.5v74h103z
M432 750q0 -21 -14.5 -35.5t-35.5 -14.5t-35.5 14.5t-14.5 35.5t14.5 35.5t35.5 14.5t35.5 -14.5t14.5 -35.5z" />
    <glyph glyph-name="Agrave" unicode="&#xc0;" horiz-adv-x="732" 
d="M174 0h-104l294 800l298 -800h-104l-80 200h-225zM286 300h160l-82 233zM374 940l121 -100h-135l-123 100h137z" />
    <glyph glyph-name="Aacute" unicode="&#xc1;" horiz-adv-x="732" 
d="M174 0h-104l294 800l298 -800h-104l-80 200h-225zM286 300h160l-82 233zM495 940l-123 -100h-135l121 100h137z" />
    <glyph glyph-name="Acircumflex" unicode="&#xc2;" horiz-adv-x="732" 
d="M174 0h-104l294 800l298 -800h-104l-80 200h-225zM286 300h160l-82 233zM293 842h-118l136 200h109l136 -200h-118l-72 102z" />
    <glyph glyph-name="Atilde" unicode="&#xc3;" horiz-adv-x="732" 
d="M174 0h-104l294 800l298 -800h-104l-80 200h-225zM286 300h160l-82 233zM326 864q-29 10 -61 5t-52 -28l-1 102q34 14 71 19t74 -7q18 -6 39.5 -11.5t42.5 -8.5t41.5 -1t37.5 13l1 -99q-45 -10 -95 -4.5t-98 20.5z" />
    <glyph glyph-name="Adieresis" unicode="&#xc4;" horiz-adv-x="732" 
d="M174 0h-104l294 800l298 -800h-104l-80 200h-225zM286 300h160l-82 233zM221 892q0 21 14.5 35.5t35.5 14.5t35.5 -14.5t14.5 -35.5t-14.5 -35.5t-35.5 -14.5t-35.5 14.5t-14.5 35.5zM411 891q0 21 14.5 35.5t35.5 14.5t35.5 -14.5t14.5 -35.5t-14.5 -35.5t-35.5 -14.5
t-35.5 14.5t-14.5 35.5z" />
    <glyph glyph-name="Aring" unicode="&#xc5;" horiz-adv-x="732" 
d="M214 850q0 31 12 58t32 47.5t47.5 32.5t58.5 12t58 -12t47.5 -32.5t32.5 -47.5t12 -58q0 -54 -32.5 -94t-82.5 -52l263 -704h-104l-80 200h-225l-79 -200h-104l259 704q-25 6 -46 19.5t-36.5 32.5t-24 43t-8.5 51zM286 300h160l-82 233zM314 850q0 -21 14.5 -35.5
t35.5 -14.5t35.5 14.5t14.5 35.5t-14.5 35.5t-35.5 14.5t-35.5 -14.5t-14.5 -35.5z" />
    <glyph glyph-name="AE" unicode="&#xc6;" horiz-adv-x="885" 
d="M174 0h-104l294 800h450v-100h-350v-400h250v-100h-250v-100h351v-100h-451v200h-111zM286 300h78v233z" />
    <glyph glyph-name="Ccedilla" unicode="&#xc7;" horiz-adv-x="839" 
d="M170 399q0 -63 23.5 -117.5t64.5 -95.5t95.5 -64.5t117.5 -23.5q68 0 125.5 27t99.5 74l73 -65q-47 -52 -109.5 -86t-134.5 -44l-101 -152h-117l100 152q-72 11 -133.5 46.5t-106.5 88t-71 119.5t-26 142q0 83 31.5 156t85.5 127t127 85.5t156 31.5q90 0 166.5 -36
t132.5 -98l-74 -66q-42 47 -99.5 73.5t-124.5 26.5q-63 0 -117.5 -23.5t-95.5 -64.5t-64.5 -95.5t-23.5 -117.5z" />
    <glyph glyph-name="Egrave" unicode="&#xc8;" horiz-adv-x="591" 
d="M70 800h450v-100h-350v-400h250v-100h-250v-100h351v-100h-451v800zM303 940l121 -100h-135l-123 100h137z" />
    <glyph glyph-name="Eacute" unicode="&#xc9;" horiz-adv-x="591" 
d="M70 800h450v-100h-350v-400h250v-100h-250v-100h351v-100h-451v800zM424 940l-123 -100h-135l121 100h137z" />
    <glyph glyph-name="Ecircumflex" unicode="&#xca;" horiz-adv-x="591" 
d="M70 800h450v-100h-350v-400h250v-100h-250v-100h351v-100h-451v800zM223 842h-118l136 200h109l136 -200h-118l-72 102z" />
    <glyph glyph-name="Edieresis" unicode="&#xcb;" horiz-adv-x="591" 
d="M70 800h450v-100h-350v-400h250v-100h-250v-100h351v-100h-451v800zM150 892q0 21 14.5 35.5t35.5 14.5t35.5 -14.5t14.5 -35.5t-14.5 -35.5t-35.5 -14.5t-35.5 14.5t-14.5 35.5zM340 891q0 21 14.5 35.5t35.5 14.5t35.5 -14.5t14.5 -35.5t-14.5 -35.5t-35.5 -14.5
t-35.5 14.5t-14.5 35.5z" />
    <glyph glyph-name="Igrave" unicode="&#xcc;" 
d="M70 800h100v-800h-100v800zM128 940l121 -100h-135l-123 100h137z" />
    <glyph glyph-name="Iacute" unicode="&#xcd;" 
d="M70 800h100v-800h-100v800zM249 940l-123 -100h-135l121 100h137z" />
    <glyph glyph-name="Icircumflex" unicode="&#xce;" 
d="M70 800h100v-800h-100v800zM48 842h-118l136 200h109l136 -200h-118l-72 102z" />
    <glyph glyph-name="Idieresis" unicode="&#xcf;" 
d="M70 800h100v-800h-100v800zM-25 892q0 21 14.5 35.5t35.5 14.5t35.5 -14.5t14.5 -35.5t-14.5 -35.5t-35.5 -14.5t-35.5 14.5t-14.5 35.5zM165 891q0 21 14.5 35.5t35.5 14.5t35.5 -14.5t14.5 -35.5t-14.5 -35.5t-35.5 -14.5t-35.5 14.5t-14.5 35.5z" />
    <glyph glyph-name="Eth" unicode="&#xd0;" horiz-adv-x="690" 
d="M70 448h50v352h100q83 0 156 -31.5t127 -85.5t85.5 -127t31.5 -156t-31.5 -156t-85.5 -127t-127 -85.5t-156 -31.5h-100v348h-50v100zM221 448h49v-100h-49v-250q63 0 117.5 23.5t95.5 64.5t64.5 95.5t23.5 117.5t-23.5 117.5t-64.5 95.5t-95.5 64.5t-117.5 23.5v-252z
" />
    <glyph glyph-name="Ntilde" unicode="&#xd1;" horiz-adv-x="689" 
d="M170 603v-603h-100v800h102l347 -599v599h100v-800h-100zM305 864q-29 10 -61 5t-52 -28l-1 102q34 14 71 19t74 -7q18 -6 39.5 -11.5t42.5 -8.5t41.5 -1t37.5 13l1 -99q-45 -10 -95 -4.5t-98 20.5z" />
    <glyph glyph-name="Ograve" unicode="&#xd2;" horiz-adv-x="940" 
d="M70 400q0 83 31.5 156t85.5 127t127 85.5t156 31.5t156 -31.5t127 -85.5t85.5 -127t31.5 -156t-31.5 -156t-85.5 -127t-127 -85.5t-156 -31.5t-156 31.5t-127 85.5t-85.5 127t-31.5 156zM170 399q0 -63 23.5 -117.5t64.5 -95.5t95.5 -64.5t117.5 -23.5t117.5 23.5
t95.5 64.5t64.5 95.5t23.5 117.5t-23.5 117.5t-64.5 95.5t-95.5 64.5t-117.5 23.5t-117.5 -23.5t-95.5 -64.5t-64.5 -95.5t-23.5 -117.5zM478 940l121 -100h-135l-123 100h137z" />
    <glyph glyph-name="Oacute" unicode="&#xd3;" horiz-adv-x="940" 
d="M70 400q0 83 31.5 156t85.5 127t127 85.5t156 31.5t156 -31.5t127 -85.5t85.5 -127t31.5 -156t-31.5 -156t-85.5 -127t-127 -85.5t-156 -31.5t-156 31.5t-127 85.5t-85.5 127t-31.5 156zM170 399q0 -63 23.5 -117.5t64.5 -95.5t95.5 -64.5t117.5 -23.5t117.5 23.5
t95.5 64.5t64.5 95.5t23.5 117.5t-23.5 117.5t-64.5 95.5t-95.5 64.5t-117.5 23.5t-117.5 -23.5t-95.5 -64.5t-64.5 -95.5t-23.5 -117.5zM599 940l-123 -100h-135l121 100h137z" />
    <glyph glyph-name="Ocircumflex" unicode="&#xd4;" horiz-adv-x="940" 
d="M70 400q0 83 31.5 156t85.5 127t127 85.5t156 31.5t156 -31.5t127 -85.5t85.5 -127t31.5 -156t-31.5 -156t-85.5 -127t-127 -85.5t-156 -31.5t-156 31.5t-127 85.5t-85.5 127t-31.5 156zM170 399q0 -63 23.5 -117.5t64.5 -95.5t95.5 -64.5t117.5 -23.5t117.5 23.5
t95.5 64.5t64.5 95.5t23.5 117.5t-23.5 117.5t-64.5 95.5t-95.5 64.5t-117.5 23.5t-117.5 -23.5t-95.5 -64.5t-64.5 -95.5t-23.5 -117.5zM397 842h-118l136 200h109l136 -200h-118l-72 102z" />
    <glyph glyph-name="Otilde" unicode="&#xd5;" horiz-adv-x="940" 
d="M70 400q0 83 31.5 156t85.5 127t127 85.5t156 31.5t156 -31.5t127 -85.5t85.5 -127t31.5 -156t-31.5 -156t-85.5 -127t-127 -85.5t-156 -31.5t-156 31.5t-127 85.5t-85.5 127t-31.5 156zM170 399q0 -63 23.5 -117.5t64.5 -95.5t95.5 -64.5t117.5 -23.5t117.5 23.5
t95.5 64.5t64.5 95.5t23.5 117.5t-23.5 117.5t-64.5 95.5t-95.5 64.5t-117.5 23.5t-117.5 -23.5t-95.5 -64.5t-64.5 -95.5t-23.5 -117.5zM509 864q-48 -15 -98 -20.5t-95 4.5l1 99q17 -11 37.5 -13t41.5 1t42.5 8.5t39.5 11.5q37 12 74 7t71 -19l-1 -102q-20 23 -52 28
t-61 -5z" />
    <glyph glyph-name="Odieresis" unicode="&#xd6;" horiz-adv-x="940" 
d="M70 400q0 83 31.5 156t85.5 127t127 85.5t156 31.5t156 -31.5t127 -85.5t85.5 -127t31.5 -156t-31.5 -156t-85.5 -127t-127 -85.5t-156 -31.5t-156 31.5t-127 85.5t-85.5 127t-31.5 156zM170 399q0 -63 23.5 -117.5t64.5 -95.5t95.5 -64.5t117.5 -23.5t117.5 23.5
t95.5 64.5t64.5 95.5t23.5 117.5t-23.5 117.5t-64.5 95.5t-95.5 64.5t-117.5 23.5t-117.5 -23.5t-95.5 -64.5t-64.5 -95.5t-23.5 -117.5zM325 892q0 21 14.5 35.5t35.5 14.5t35.5 -14.5t14.5 -35.5t-14.5 -35.5t-35.5 -14.5t-35.5 14.5t-14.5 35.5zM515 891q0 21 14.5 35.5
t35.5 14.5t35.5 -14.5t14.5 -35.5t-14.5 -35.5t-35.5 -14.5t-35.5 14.5t-14.5 35.5z" />
    <glyph glyph-name="multiply" unicode="&#xd7;" horiz-adv-x="521" 
d="M188 200h-118l132 202l-129 198h118l70 -108l70 108h118l-129 -198l131 -202h-118l-72 111z" />
    <glyph glyph-name="Oslash" unicode="&#xd8;" horiz-adv-x="940" 
d="M269 0h-118l61 94q-66 55 -104 134t-38 172q0 83 31.5 156t85.5 127t127 85.5t156 31.5q48 0 91.5 -10.5t83.5 -30.5l26 41h119l-62 -95q66 -55 104 -134t38 -171q0 -83 -31.5 -156t-85.5 -127t-127 -85.5t-156 -31.5q-93 0 -175 40zM772 399q0 66 -26.5 123.5
t-71.5 99.5l-325 -499q58 -25 122 -25q63 0 117.5 23.5t95.5 64.5t64.5 95.5t23.5 117.5zM170 399q0 -66 25.5 -123t70.5 -99l324 498q-56 25 -119 25t-117.5 -23.5t-95.5 -64.5t-64.5 -95.5t-23.5 -117.5z" />
    <glyph glyph-name="Ugrave" unicode="&#xd9;" horiz-adv-x="788" 
d="M170 400q0 -62 17.5 -116.5t47.5 -95.5t71 -64.5t88 -23.5t88 23.5t71 64.5t47.5 95.5t17.5 116.5v400h100l-2 -400q0 -83 -25.5 -156t-69.5 -127t-102.5 -85.5t-125.5 -31.5t-125.5 31.5t-102.5 85.5t-69.5 127t-25.5 156v400h100v-400zM402 940l121 -100h-135l-123 100
h137z" />
    <glyph glyph-name="Uacute" unicode="&#xda;" horiz-adv-x="788" 
d="M170 400q0 -62 17.5 -116.5t47.5 -95.5t71 -64.5t88 -23.5t88 23.5t71 64.5t47.5 95.5t17.5 116.5v400h100l-2 -400q0 -83 -25.5 -156t-69.5 -127t-102.5 -85.5t-125.5 -31.5t-125.5 31.5t-102.5 85.5t-69.5 127t-25.5 156v400h100v-400zM523 940l-123 -100h-135l121 100
h137z" />
    <glyph glyph-name="Ucircumflex" unicode="&#xdb;" horiz-adv-x="788" 
d="M170 400q0 -62 17.5 -116.5t47.5 -95.5t71 -64.5t88 -23.5t88 23.5t71 64.5t47.5 95.5t17.5 116.5v400h100l-2 -400q0 -83 -25.5 -156t-69.5 -127t-102.5 -85.5t-125.5 -31.5t-125.5 31.5t-102.5 85.5t-69.5 127t-25.5 156v400h100v-400zM321 842h-118l136 200h109
l136 -200h-118l-72 102z" />
    <glyph glyph-name="Udieresis" unicode="&#xdc;" horiz-adv-x="788" 
d="M170 400q0 -62 17.5 -116.5t47.5 -95.5t71 -64.5t88 -23.5t88 23.5t71 64.5t47.5 95.5t17.5 116.5v400h100l-2 -400q0 -83 -25.5 -156t-69.5 -127t-102.5 -85.5t-125.5 -31.5t-125.5 31.5t-102.5 85.5t-69.5 127t-25.5 156v400h100v-400zM249 892q0 21 14.5 35.5
t35.5 14.5t35.5 -14.5t14.5 -35.5t-14.5 -35.5t-35.5 -14.5t-35.5 14.5t-14.5 35.5zM439 891q0 21 14.5 35.5t35.5 14.5t35.5 -14.5t14.5 -35.5t-14.5 -35.5t-35.5 -14.5t-35.5 14.5t-14.5 35.5z" />
    <glyph glyph-name="Yacute" unicode="&#xdd;" horiz-adv-x="776" 
d="M441 0h-100v205l-271 595h113l207 -464l206 464h110l-265 -601v-199zM517 940l-123 -100h-135l121 100h137z" />
    <glyph glyph-name="Thorn" unicode="&#xde;" horiz-adv-x="540" 
d="M70 800h100v-227q22 13 47 20t53 7q41 0 77.5 -16t63.5 -43t43 -63.5t16 -77.5t-16 -77.5t-43 -63.5t-63.5 -43t-77.5 -16q-28 0 -53 7t-47 20v-227h-100v800zM170 400q0 -42 29 -71t71 -29t71 29t29 71t-29 71t-71 29q-41 0 -69.5 -28t-30.5 -68v-4z" />
    <glyph glyph-name="germandbls" unicode="&#xdf;" horiz-adv-x="616" 
d="M170 0h-100v600q0 50 11.5 84.5t30 56.5t42 34t46.5 17.5t43.5 6.5t34.5 1q37 0 69.5 -15t57 -40t38.5 -58.5t14 -70.5q0 -34 -10.5 -61.5t-29.5 -53.5q58 -35 93.5 -96.5t35.5 -134.5q0 -56 -21.5 -105.5t-58.5 -86t-86 -57.5t-104 -21l1 100q34 0 64 13.5t52 36.5
t34.5 53.5t12.5 64.5q0 33 -12 63.5t-33 53.5t-49.5 36.5t-61.5 13.5h-6l1 102q15 0 28.5 6.5t24.5 17.5t17.5 25t6.5 30q0 32 -22.5 55t-55.5 23h-15q-26 0 -43.5 -4t-28.5 -14.5t-16 -28.5t-5 -47v-600z" />
    <glyph glyph-name="agrave" unicode="&#xe0;" horiz-adv-x="732" 
d="M174 0h-104l294 800l298 -800h-104l-80 200h-225zM286 300h160l-82 233zM374 940l121 -100h-135l-123 100h137z" />
    <glyph glyph-name="aacute" unicode="&#xe1;" horiz-adv-x="732" 
d="M174 0h-104l294 800l298 -800h-104l-80 200h-225zM286 300h160l-82 233zM495 940l-123 -100h-135l121 100h137z" />
    <glyph glyph-name="acircumflex" unicode="&#xe2;" horiz-adv-x="732" 
d="M174 0h-104l294 800l298 -800h-104l-80 200h-225zM286 300h160l-82 233zM293 842h-118l136 200h109l136 -200h-118l-72 102z" />
    <glyph glyph-name="atilde" unicode="&#xe3;" horiz-adv-x="732" 
d="M174 0h-104l294 800l298 -800h-104l-80 200h-225zM286 300h160l-82 233zM326 864q-29 10 -61 5t-52 -28l-1 102q34 14 71 19t74 -7q18 -6 39.5 -11.5t42.5 -8.5t41.5 -1t37.5 13l1 -99q-45 -10 -95 -4.5t-98 20.5z" />
    <glyph glyph-name="adieresis" unicode="&#xe4;" horiz-adv-x="732" 
d="M174 0h-104l294 800l298 -800h-104l-80 200h-225zM286 300h160l-82 233zM221 892q0 21 14.5 35.5t35.5 14.5t35.5 -14.5t14.5 -35.5t-14.5 -35.5t-35.5 -14.5t-35.5 14.5t-14.5 35.5zM411 891q0 21 14.5 35.5t35.5 14.5t35.5 -14.5t14.5 -35.5t-14.5 -35.5t-35.5 -14.5
t-35.5 14.5t-14.5 35.5z" />
    <glyph glyph-name="aring" unicode="&#xe5;" horiz-adv-x="732" 
d="M214 850q0 31 12 58t32 47.5t47.5 32.5t58.5 12t58 -12t47.5 -32.5t32.5 -47.5t12 -58q0 -54 -32.5 -94t-82.5 -52l263 -704h-104l-80 200h-225l-79 -200h-104l259 704q-25 6 -46 19.5t-36.5 32.5t-24 43t-8.5 51zM286 300h160l-82 233zM314 850q0 -21 14.5 -35.5
t35.5 -14.5t35.5 14.5t14.5 35.5t-14.5 35.5t-35.5 14.5t-35.5 -14.5t-14.5 -35.5z" />
    <glyph glyph-name="ae" unicode="&#xe6;" horiz-adv-x="885" 
d="M174 0h-104l294 800h450v-100h-350v-400h250v-100h-250v-100h351v-100h-451v200h-111zM286 300h78v233z" />
    <glyph glyph-name="ccedilla" unicode="&#xe7;" horiz-adv-x="839" 
d="M170 399q0 -63 23.5 -117.5t64.5 -95.5t95.5 -64.5t117.5 -23.5q68 0 125.5 27t99.5 74l73 -65q-47 -52 -109.5 -86t-134.5 -44l-101 -152h-117l100 152q-72 11 -133.5 46.5t-106.5 88t-71 119.5t-26 142q0 83 31.5 156t85.5 127t127 85.5t156 31.5q90 0 166.5 -36
t132.5 -98l-74 -66q-42 47 -99.5 73.5t-124.5 26.5q-63 0 -117.5 -23.5t-95.5 -64.5t-64.5 -95.5t-23.5 -117.5z" />
    <glyph glyph-name="egrave" unicode="&#xe8;" horiz-adv-x="591" 
d="M70 800h450v-100h-350v-400h250v-100h-250v-100h351v-100h-451v800zM303 940l121 -100h-135l-123 100h137z" />
    <glyph glyph-name="eacute" unicode="&#xe9;" horiz-adv-x="591" 
d="M70 800h450v-100h-350v-400h250v-100h-250v-100h351v-100h-451v800zM424 940l-123 -100h-135l121 100h137z" />
    <glyph glyph-name="ecircumflex" unicode="&#xea;" horiz-adv-x="591" 
d="M70 800h450v-100h-350v-400h250v-100h-250v-100h351v-100h-451v800zM223 842h-118l136 200h109l136 -200h-118l-72 102z" />
    <glyph glyph-name="edieresis" unicode="&#xeb;" horiz-adv-x="591" 
d="M70 800h450v-100h-350v-400h250v-100h-250v-100h351v-100h-451v800zM150 892q0 21 14.5 35.5t35.5 14.5t35.5 -14.5t14.5 -35.5t-14.5 -35.5t-35.5 -14.5t-35.5 14.5t-14.5 35.5zM340 891q0 21 14.5 35.5t35.5 14.5t35.5 -14.5t14.5 -35.5t-14.5 -35.5t-35.5 -14.5
t-35.5 14.5t-14.5 35.5z" />
    <glyph glyph-name="igrave" unicode="&#xec;" 
d="M70 800h100v-800h-100v800zM128 940l121 -100h-135l-123 100h137z" />
    <glyph glyph-name="iacute" unicode="&#xed;" 
d="M70 800h100v-800h-100v800zM249 940l-123 -100h-135l121 100h137z" />
    <glyph glyph-name="icircumflex" unicode="&#xee;" 
d="M70 800h100v-800h-100v800zM48 842h-118l136 200h109l136 -200h-118l-72 102z" />
    <glyph glyph-name="idieresis" unicode="&#xef;" 
d="M70 800h100v-800h-100v800zM-25 892q0 21 14.5 35.5t35.5 14.5t35.5 -14.5t14.5 -35.5t-14.5 -35.5t-35.5 -14.5t-35.5 14.5t-14.5 35.5zM165 891q0 21 14.5 35.5t35.5 14.5t35.5 -14.5t14.5 -35.5t-14.5 -35.5t-35.5 -14.5t-35.5 14.5t-14.5 35.5z" />
    <glyph glyph-name="eth" unicode="&#xf0;" horiz-adv-x="690" 
d="M70 448h50v352h100q83 0 156 -31.5t127 -85.5t85.5 -127t31.5 -156t-31.5 -156t-85.5 -127t-127 -85.5t-156 -31.5h-100v348h-50v100zM221 448h49v-100h-49v-250q63 0 117.5 23.5t95.5 64.5t64.5 95.5t23.5 117.5t-23.5 117.5t-64.5 95.5t-95.5 64.5t-117.5 23.5v-252z
" />
    <glyph glyph-name="ntilde" unicode="&#xf1;" horiz-adv-x="689" 
d="M170 603v-603h-100v800h102l347 -599v599h100v-800h-100zM384 864q-48 -15 -98 -20.5t-95 4.5l1 99q17 -11 37.5 -13t41.5 1t42.5 8.5t39.5 11.5q37 12 74 7t71 -19l-1 -102q-20 23 -52 28t-61 -5z" />
    <glyph glyph-name="ograve" unicode="&#xf2;" horiz-adv-x="740" 
d="M70 500q0 62 23.5 117t64 95.5t95.5 64t117 23.5t117 -23.5t95.5 -64t64 -95.5t23.5 -117t-23.5 -117t-64 -95.5t-95.5 -64t-117 -23.5t-117 23.5t-95.5 64t-64 95.5t-23.5 117zM170 498q0 -41 16 -77.5t43 -63.5t63.5 -43t77.5 -16t77.5 16t63.5 43t43 63.5t16 77.5
t-16 77.5t-43 63.5t-63.5 43t-77.5 16t-77.5 -16t-63.5 -43t-43 -63.5t-16 -77.5zM170 100h400v-100h-400v100zM378 940l121 -100h-135l-123 100h137z" />
    <glyph glyph-name="oacute" unicode="&#xf3;" horiz-adv-x="740" 
d="M70 500q0 62 23.5 117t64 95.5t95.5 64t117 23.5t117 -23.5t95.5 -64t64 -95.5t23.5 -117t-23.5 -117t-64 -95.5t-95.5 -64t-117 -23.5t-117 23.5t-95.5 64t-64 95.5t-23.5 117zM170 498q0 -41 16 -77.5t43 -63.5t63.5 -43t77.5 -16t77.5 16t63.5 43t43 63.5t16 77.5
t-16 77.5t-43 63.5t-63.5 43t-77.5 16t-77.5 -16t-63.5 -43t-43 -63.5t-16 -77.5zM170 100h400v-100h-400v100zM499 940l-123 -100h-135l121 100h137z" />
    <glyph glyph-name="ocircumflex" unicode="&#xf4;" horiz-adv-x="740" 
d="M70 500q0 62 23.5 117t64 95.5t95.5 64t117 23.5t117 -23.5t95.5 -64t64 -95.5t23.5 -117t-23.5 -117t-64 -95.5t-95.5 -64t-117 -23.5t-117 23.5t-95.5 64t-64 95.5t-23.5 117zM170 498q0 -41 16 -77.5t43 -63.5t63.5 -43t77.5 -16t77.5 16t63.5 43t43 63.5t16 77.5
t-16 77.5t-43 63.5t-63.5 43t-77.5 16t-77.5 -16t-63.5 -43t-43 -63.5t-16 -77.5zM170 100h400v-100h-400v100zM297 842h-118l136 200h109l136 -200h-118l-72 102z" />
    <glyph glyph-name="otilde" unicode="&#xf5;" horiz-adv-x="740" 
d="M70 500q0 62 23.5 117t64 95.5t95.5 64t117 23.5t117 -23.5t95.5 -64t64 -95.5t23.5 -117t-23.5 -117t-64 -95.5t-95.5 -64t-117 -23.5t-117 23.5t-95.5 64t-64 95.5t-23.5 117zM170 498q0 -41 16 -77.5t43 -63.5t63.5 -43t77.5 -16t77.5 16t63.5 43t43 63.5t16 77.5
t-16 77.5t-43 63.5t-63.5 43t-77.5 16t-77.5 -16t-63.5 -43t-43 -63.5t-16 -77.5zM170 100h400v-100h-400v100zM330 864q-29 10 -61 5t-52 -28l-1 102q34 14 71 19t74 -7q18 -6 39.5 -11.5t42.5 -8.5t41.5 -1t37.5 13l1 -99q-45 -10 -95 -4.5t-98 20.5z" />
    <glyph glyph-name="odieresis" unicode="&#xf6;" horiz-adv-x="740" 
d="M70 500q0 62 23.5 117t64 95.5t95.5 64t117 23.5t117 -23.5t95.5 -64t64 -95.5t23.5 -117t-23.5 -117t-64 -95.5t-95.5 -64t-117 -23.5t-117 23.5t-95.5 64t-64 95.5t-23.5 117zM170 498q0 -41 16 -77.5t43 -63.5t63.5 -43t77.5 -16t77.5 16t63.5 43t43 63.5t16 77.5
t-16 77.5t-43 63.5t-63.5 43t-77.5 16t-77.5 -16t-63.5 -43t-43 -63.5t-16 -77.5zM170 100h400v-100h-400v100zM225 892q0 21 14.5 35.5t35.5 14.5t35.5 -14.5t14.5 -35.5t-14.5 -35.5t-35.5 -14.5t-35.5 14.5t-14.5 35.5zM415 891q0 21 14.5 35.5t35.5 14.5t35.5 -14.5
t14.5 -35.5t-14.5 -35.5t-35.5 -14.5t-35.5 14.5t-14.5 35.5z" />
    <glyph glyph-name="divide" unicode="&#xf7;" horiz-adv-x="540" 
d="M70 450h400v-100h-400v100zM220 672q0 21 14.5 35.5t35.5 14.5t35.5 -14.5t14.5 -35.5t-14.5 -35.5t-35.5 -14.5t-35.5 14.5t-14.5 35.5zM220 124q0 21 14.5 35.5t35.5 14.5t35.5 -14.5t14.5 -35.5t-14.5 -35.5t-35.5 -14.5t-35.5 14.5t-14.5 35.5z" />
    <glyph glyph-name="oslash" unicode="&#xf8;" horiz-adv-x="740" 
d="M231 200h-117l52 80q-45 42 -70.5 98t-25.5 122q0 62 23.5 117t64 95.5t95.5 64t117 23.5t118 -25l16 25h117l-50 -77q46 -42 72.5 -99.5t26.5 -123.5q0 -62 -23.5 -117t-64 -95.5t-95.5 -64t-117 -23.5q-65 0 -122 26zM570 498q0 40 -15 75.5t-41 62.5l-212 -326
q31 -12 68 -12q41 0 77.5 16t63.5 43t43 63.5t16 77.5zM170 498q0 -38 13.5 -72.5t37.5 -60.5l211 323q-29 10 -62 10q-41 0 -77.5 -16t-63.5 -43t-43 -63.5t-16 -77.5zM170 100h400v-100h-400v100z" />
    <glyph glyph-name="ugrave" unicode="&#xf9;" horiz-adv-x="788" 
d="M170 400q0 -62 17.5 -116.5t47.5 -95.5t71 -64.5t88 -23.5t88 23.5t71 64.5t47.5 95.5t17.5 116.5v400h100l-2 -400q0 -83 -25.5 -156t-69.5 -127t-102.5 -85.5t-125.5 -31.5t-125.5 31.5t-102.5 85.5t-69.5 127t-25.5 156v400h100v-400zM402 940l121 -100h-135l-123 100
h137z" />
    <glyph glyph-name="uacute" unicode="&#xfa;" horiz-adv-x="788" 
d="M170 400q0 -62 17.5 -116.5t47.5 -95.5t71 -64.5t88 -23.5t88 23.5t71 64.5t47.5 95.5t17.5 116.5v400h100l-2 -400q0 -83 -25.5 -156t-69.5 -127t-102.5 -85.5t-125.5 -31.5t-125.5 31.5t-102.5 85.5t-69.5 127t-25.5 156v400h100v-400zM523 940l-123 -100h-135l121 100
h137z" />
    <glyph glyph-name="ucircumflex" unicode="&#xfb;" horiz-adv-x="788" 
d="M170 400q0 -62 17.5 -116.5t47.5 -95.5t71 -64.5t88 -23.5t88 23.5t71 64.5t47.5 95.5t17.5 116.5v400h100l-2 -400q0 -83 -25.5 -156t-69.5 -127t-102.5 -85.5t-125.5 -31.5t-125.5 31.5t-102.5 85.5t-69.5 127t-25.5 156v400h100v-400zM321 842h-118l136 200h109
l136 -200h-118l-72 102z" />
    <glyph glyph-name="udieresis" unicode="&#xfc;" horiz-adv-x="788" 
d="M170 400q0 -62 17.5 -116.5t47.5 -95.5t71 -64.5t88 -23.5t88 23.5t71 64.5t47.5 95.5t17.5 116.5v400h100l-2 -400q0 -83 -25.5 -156t-69.5 -127t-102.5 -85.5t-125.5 -31.5t-125.5 31.5t-102.5 85.5t-69.5 127t-25.5 156v400h100v-400zM249 892q0 21 14.5 35.5
t35.5 14.5t35.5 -14.5t14.5 -35.5t-14.5 -35.5t-35.5 -14.5t-35.5 14.5t-14.5 35.5zM439 891q0 21 14.5 35.5t35.5 14.5t35.5 -14.5t14.5 -35.5t-14.5 -35.5t-35.5 -14.5t-35.5 14.5t-14.5 35.5z" />
    <glyph glyph-name="yacute" unicode="&#xfd;" horiz-adv-x="606" 
d="M311 375l117 425h108l-231 -800h-111l62 200l-186 600h111zM432 940l-123 -100h-135l121 100h137z" />
    <glyph glyph-name="thorn" unicode="&#xfe;" horiz-adv-x="540" 
d="M70 800h100v-227q22 13 47 20t53 7q41 0 77.5 -16t63.5 -43t43 -63.5t16 -77.5t-16 -77.5t-43 -63.5t-63.5 -43t-77.5 -16q-28 0 -53 7t-47 20v-227h-100v800zM170 400q0 -42 29 -71t71 -29t71 29t29 71t-29 71t-71 29q-41 0 -69.5 -28t-30.5 -68v-4z" />
    <glyph glyph-name="ydieresis" unicode="&#xff;" horiz-adv-x="606" 
d="M311 375l117 425h108l-231 -800h-111l62 200l-186 600h111zM158 892q0 21 14.5 35.5t35.5 14.5t35.5 -14.5t14.5 -35.5t-14.5 -35.5t-35.5 -14.5t-35.5 14.5t-14.5 35.5zM348 891q0 21 14.5 35.5t35.5 14.5t35.5 -14.5t14.5 -35.5t-14.5 -35.5t-35.5 -14.5t-35.5 14.5
t-14.5 35.5z" />
    <glyph glyph-name="Amacron" unicode="&#x100;" horiz-adv-x="732" 
d="M174 0h-104l294 800l298 -800h-104l-80 200h-225zM286 300h160l-82 233zM216 942h300v-84h-300v84z" />
    <glyph glyph-name="amacron" unicode="&#x101;" horiz-adv-x="732" 
d="M174 0h-104l294 800l298 -800h-104l-80 200h-225zM286 300h160l-82 233zM216 942h300v-84h-300v84z" />
    <glyph glyph-name="Abreve" unicode="&#x102;" horiz-adv-x="732" 
d="M174 0h-104l294 800l298 -800h-104l-80 200h-225zM286 300h160l-82 233zM316 992q0 -21 14.5 -35.5t35.5 -14.5t35.5 14.5t14.5 35.5h100q0 -31 -12 -58.5t-32.5 -47.5t-47.5 -32t-58 -12t-58.5 12t-47.5 32t-32 47.5t-12 58.5h100z" />
    <glyph glyph-name="abreve" unicode="&#x103;" horiz-adv-x="732" 
d="M174 0h-104l294 800l298 -800h-104l-80 200h-225zM286 300h160l-82 233zM316 992q0 -21 14.5 -35.5t35.5 -14.5t35.5 14.5t14.5 35.5h100q0 -31 -12 -58.5t-32.5 -47.5t-47.5 -32t-58 -12t-58.5 12t-47.5 32t-32 47.5t-12 58.5h100z" />
    <glyph glyph-name="Aogonek" unicode="&#x104;" horiz-adv-x="732" 
d="M174 0h-104l294 800l298 -800h-14l96 -146h-75l-98 146h-13l-80 200h-225zM286 300h160l-82 233z" />
    <glyph glyph-name="aogonek" unicode="&#x105;" horiz-adv-x="732" 
d="M174 0h-104l294 800l298 -800h-14l96 -146h-75l-98 146h-13l-80 200h-225zM286 300h160l-82 233z" />
    <glyph glyph-name="Cacute" unicode="&#x106;" horiz-adv-x="839" 
d="M170 399q0 -63 23.5 -117.5t64.5 -95.5t95.5 -64.5t117.5 -23.5q68 0 125.5 27t99.5 74l73 -65q-56 -62 -132.5 -98t-166.5 -36q-83 0 -156 31.5t-127 85.5t-85.5 127t-31.5 156t31.5 156t85.5 127t127 85.5t156 31.5q90 0 166.5 -36t132.5 -98l-74 -66
q-42 47 -99.5 73.5t-124.5 26.5q-63 0 -117.5 -23.5t-95.5 -64.5t-64.5 -95.5t-23.5 -117.5zM548 940l-123 -100h-135l121 100h137z" />
    <glyph glyph-name="cacute" unicode="&#x107;" horiz-adv-x="839" 
d="M170 399q0 -63 23.5 -117.5t64.5 -95.5t95.5 -64.5t117.5 -23.5q68 0 125.5 27t99.5 74l73 -65q-56 -62 -132.5 -98t-166.5 -36q-83 0 -156 31.5t-127 85.5t-85.5 127t-31.5 156t31.5 156t85.5 127t127 85.5t156 31.5q90 0 166.5 -36t132.5 -98l-74 -66
q-42 47 -99.5 73.5t-124.5 26.5q-63 0 -117.5 -23.5t-95.5 -64.5t-64.5 -95.5t-23.5 -117.5zM548 940l-123 -100h-135l121 100h137z" />
    <glyph glyph-name="Ccircumflex" unicode="&#x108;" horiz-adv-x="839" 
d="M170 399q0 -63 23.5 -117.5t64.5 -95.5t95.5 -64.5t117.5 -23.5q68 0 125.5 27t99.5 74l73 -65q-56 -62 -132.5 -98t-166.5 -36q-83 0 -156 31.5t-127 85.5t-85.5 127t-31.5 156t31.5 156t85.5 127t127 85.5t156 31.5q90 0 166.5 -36t132.5 -98l-74 -66
q-42 47 -99.5 73.5t-124.5 26.5q-63 0 -117.5 -23.5t-95.5 -64.5t-64.5 -95.5t-23.5 -117.5zM347 842h-118l136 200h109l136 -200h-118l-72 102z" />
    <glyph glyph-name="ccircumflex" unicode="&#x109;" horiz-adv-x="839" 
d="M170 399q0 -63 23.5 -117.5t64.5 -95.5t95.5 -64.5t117.5 -23.5q68 0 125.5 27t99.5 74l73 -65q-56 -62 -132.5 -98t-166.5 -36q-83 0 -156 31.5t-127 85.5t-85.5 127t-31.5 156t31.5 156t85.5 127t127 85.5t156 31.5q90 0 166.5 -36t132.5 -98l-74 -66
q-42 47 -99.5 73.5t-124.5 26.5q-63 0 -117.5 -23.5t-95.5 -64.5t-64.5 -95.5t-23.5 -117.5zM347 842h-118l136 200h109l136 -200h-118l-72 102z" />
    <glyph glyph-name="Cdotaccent" unicode="&#x10a;" horiz-adv-x="839" 
d="M170 399q0 -63 23.5 -117.5t64.5 -95.5t95.5 -64.5t117.5 -23.5q68 0 125.5 27t99.5 74l73 -65q-56 -62 -132.5 -98t-166.5 -36q-83 0 -156 31.5t-127 85.5t-85.5 127t-31.5 156t31.5 156t85.5 127t127 85.5t156 31.5q90 0 166.5 -36t132.5 -98l-74 -66
q-42 47 -99.5 73.5t-124.5 26.5q-63 0 -117.5 -23.5t-95.5 -64.5t-64.5 -95.5t-23.5 -117.5zM369 892q0 21 14.5 35.5t35.5 14.5t35.5 -14.5t14.5 -35.5t-14.5 -35.5t-35.5 -14.5t-35.5 14.5t-14.5 35.5z" />
    <glyph glyph-name="cdotaccent" unicode="&#x10b;" horiz-adv-x="839" 
d="M170 399q0 -63 23.5 -117.5t64.5 -95.5t95.5 -64.5t117.5 -23.5q68 0 125.5 27t99.5 74l73 -65q-56 -62 -132.5 -98t-166.5 -36q-83 0 -156 31.5t-127 85.5t-85.5 127t-31.5 156t31.5 156t85.5 127t127 85.5t156 31.5q90 0 166.5 -36t132.5 -98l-74 -66
q-42 47 -99.5 73.5t-124.5 26.5q-63 0 -117.5 -23.5t-95.5 -64.5t-64.5 -95.5t-23.5 -117.5zM369 892q0 21 14.5 35.5t35.5 14.5t35.5 -14.5t14.5 -35.5t-14.5 -35.5t-35.5 -14.5t-35.5 14.5t-14.5 35.5z" />
    <glyph glyph-name="Ccaron" unicode="&#x10c;" horiz-adv-x="839" 
d="M170 399q0 -63 23.5 -117.5t64.5 -95.5t95.5 -64.5t117.5 -23.5q68 0 125.5 27t99.5 74l73 -65q-56 -62 -132.5 -98t-166.5 -36q-83 0 -156 31.5t-127 85.5t-85.5 127t-31.5 156t31.5 156t85.5 127t127 85.5t156 31.5q90 0 166.5 -36t132.5 -98l-74 -66
q-42 47 -99.5 73.5t-124.5 26.5q-63 0 -117.5 -23.5t-95.5 -64.5t-64.5 -95.5t-23.5 -117.5zM420 940l72 102h118l-136 -200h-109l-136 200h118z" />
    <glyph glyph-name="ccaron" unicode="&#x10d;" horiz-adv-x="839" 
d="M170 399q0 -63 23.5 -117.5t64.5 -95.5t95.5 -64.5t117.5 -23.5q68 0 125.5 27t99.5 74l73 -65q-56 -62 -132.5 -98t-166.5 -36q-83 0 -156 31.5t-127 85.5t-85.5 127t-31.5 156t31.5 156t85.5 127t127 85.5t156 31.5q90 0 166.5 -36t132.5 -98l-74 -66
q-42 47 -99.5 73.5t-124.5 26.5q-63 0 -117.5 -23.5t-95.5 -64.5t-64.5 -95.5t-23.5 -117.5zM420 940l72 102h118l-136 -200h-109l-136 200h118z" />
    <glyph glyph-name="Dcaron" unicode="&#x10e;" horiz-adv-x="671" 
d="M101 800h100q83 0 156 -31.5t127 -85.5t85.5 -127t31.5 -156t-31.5 -156t-85.5 -127t-127 -85.5t-156 -31.5h-100v800zM202 98q63 0 117.5 23.5t95.5 64.5t64.5 95.5t23.5 117.5t-23.5 117.5t-64.5 95.5t-95.5 64.5t-117.5 23.5v-602zM261 942l72 102h118l-136 -200h-109
l-136 200h118z" />
    <glyph glyph-name="dcaron" unicode="&#x10f;" horiz-adv-x="671" 
d="M101 800h100q83 0 156 -31.5t127 -85.5t85.5 -127t31.5 -156t-31.5 -156t-85.5 -127t-127 -85.5t-156 -31.5h-100v800zM202 98q63 0 117.5 23.5t95.5 64.5t64.5 95.5t23.5 117.5t-23.5 117.5t-64.5 95.5t-95.5 64.5t-117.5 23.5v-602zM261 942l72 102h118l-136 -200h-109
l-136 200h118z" />
    <glyph glyph-name="Dcroat" unicode="&#x110;" horiz-adv-x="690" 
d="M70 448h50v352h100q83 0 156 -31.5t127 -85.5t85.5 -127t31.5 -156t-31.5 -156t-85.5 -127t-127 -85.5t-156 -31.5h-100v348h-50v100zM221 448h49v-100h-49v-250q63 0 117.5 23.5t95.5 64.5t64.5 95.5t23.5 117.5t-23.5 117.5t-64.5 95.5t-95.5 64.5t-117.5 23.5v-252z
" />
    <glyph glyph-name="dcroat" unicode="&#x111;" horiz-adv-x="690" 
d="M70 448h50v352h100q83 0 156 -31.5t127 -85.5t85.5 -127t31.5 -156t-31.5 -156t-85.5 -127t-127 -85.5t-156 -31.5h-100v348h-50v100zM221 448h49v-100h-49v-250q63 0 117.5 23.5t95.5 64.5t64.5 95.5t23.5 117.5t-23.5 117.5t-64.5 95.5t-95.5 64.5t-117.5 23.5v-252z
" />
    <glyph glyph-name="Emacron" unicode="&#x112;" horiz-adv-x="591" 
d="M70 800h450v-100h-350v-400h250v-100h-250v-100h351v-100h-451v800zM145 942h300v-84h-300v84z" />
    <glyph glyph-name="emacron" unicode="&#x113;" horiz-adv-x="591" 
d="M70 800h450v-100h-350v-400h250v-100h-250v-100h351v-100h-451v800zM145 942h300v-84h-300v84z" />
    <glyph glyph-name="Ebreve" unicode="&#x114;" horiz-adv-x="591" 
d="M70 800h450v-100h-350v-400h250v-100h-250v-100h351v-100h-451v800zM245 992q0 -21 14.5 -35.5t35.5 -14.5t35.5 14.5t14.5 35.5h100q0 -31 -12 -58.5t-32.5 -47.5t-47.5 -32t-58 -12t-58.5 12t-47.5 32t-32 47.5t-12 58.5h100z" />
    <glyph glyph-name="ebreve" unicode="&#x115;" horiz-adv-x="591" 
d="M70 800h450v-100h-350v-400h250v-100h-250v-100h351v-100h-451v800zM245 992q0 -21 14.5 -35.5t35.5 -14.5t35.5 14.5t14.5 35.5h100q0 -31 -12 -58.5t-32.5 -47.5t-47.5 -32t-58 -12t-58.5 12t-47.5 32t-32 47.5t-12 58.5h100z" />
    <glyph glyph-name="Edotaccent" unicode="&#x116;" horiz-adv-x="591" 
d="M70 800h450v-100h-350v-400h250v-100h-250v-100h351v-100h-451v800zM245 892q0 21 14.5 35.5t35.5 14.5t35.5 -14.5t14.5 -35.5t-14.5 -35.5t-35.5 -14.5t-35.5 14.5t-14.5 35.5z" />
    <glyph glyph-name="edotaccent" unicode="&#x117;" horiz-adv-x="591" 
d="M70 800h450v-100h-350v-400h250v-100h-250v-100h351v-100h-451v800zM245 892q0 21 14.5 35.5t35.5 14.5t35.5 -14.5t14.5 -35.5t-14.5 -35.5t-35.5 -14.5t-35.5 14.5t-14.5 35.5z" />
    <glyph glyph-name="Eogonek" unicode="&#x118;" horiz-adv-x="591" 
d="M70 800h450v-100h-350v-400h250v-100h-250v-100h351v-100h-97l97 -148h-75l-99 148h-277v800z" />
    <glyph glyph-name="eogonek" unicode="&#x119;" horiz-adv-x="591" 
d="M70 800h450v-100h-350v-400h250v-100h-250v-100h351v-100h-97l97 -148h-75l-99 148h-277v800z" />
    <glyph glyph-name="Ecaron" unicode="&#x11a;" horiz-adv-x="591" 
d="M70 800h450v-100h-350v-400h250v-100h-250v-100h351v-100h-451v800zM296 940l72 102h118l-136 -200h-109l-136 200h118z" />
    <glyph glyph-name="ecaron" unicode="&#x11b;" horiz-adv-x="591" 
d="M70 800h450v-100h-350v-400h250v-100h-250v-100h351v-100h-451v800zM296 940l72 102h118l-136 -200h-109l-136 200h118z" />
    <glyph glyph-name="Gcircumflex" unicode="&#x11c;" horiz-adv-x="861" 
d="M791 0h-100v70q-49 -33 -103.5 -51.5t-117.5 -18.5q-83 0 -156 31.5t-127 85.5t-85.5 127t-31.5 156t31.5 156t85.5 127t127 85.5t156 31.5q90 0 166.5 -36t132.5 -98l-74 -66q-42 47 -99.5 73.5t-124.5 26.5q-63 0 -117.5 -23.5t-95.5 -64.5t-64.5 -95.5t-23.5 -117.5
t23.5 -117.5t64.5 -95.5t95.5 -64.5t117.5 -23.5q68 0 123 27t97 74h-271v100l371 1v-300zM358 842h-118l136 200h109l136 -200h-118l-72 102z" />
    <glyph glyph-name="gcircumflex" unicode="&#x11d;" horiz-adv-x="861" 
d="M791 0h-100v70q-49 -33 -103.5 -51.5t-117.5 -18.5q-83 0 -156 31.5t-127 85.5t-85.5 127t-31.5 156t31.5 156t85.5 127t127 85.5t156 31.5q90 0 166.5 -36t132.5 -98l-74 -66q-42 47 -99.5 73.5t-124.5 26.5q-63 0 -117.5 -23.5t-95.5 -64.5t-64.5 -95.5t-23.5 -117.5
t23.5 -117.5t64.5 -95.5t95.5 -64.5t117.5 -23.5q68 0 123 27t97 74h-271v100l371 1v-300zM358 842h-118l136 200h109l136 -200h-118l-72 102z" />
    <glyph glyph-name="Gbreve" unicode="&#x11e;" horiz-adv-x="861" 
d="M791 0h-100v70q-49 -33 -103.5 -51.5t-117.5 -18.5q-83 0 -156 31.5t-127 85.5t-85.5 127t-31.5 156t31.5 156t85.5 127t127 85.5t156 31.5q90 0 166.5 -36t132.5 -98l-74 -66q-42 47 -99.5 73.5t-124.5 26.5q-63 0 -117.5 -23.5t-95.5 -64.5t-64.5 -95.5t-23.5 -117.5
t23.5 -117.5t64.5 -95.5t95.5 -64.5t117.5 -23.5q68 0 123 27t97 74h-271v100l371 1v-300zM380 992q0 -21 14.5 -35.5t35.5 -14.5t35.5 14.5t14.5 35.5h100q0 -31 -12 -58.5t-32.5 -47.5t-47.5 -32t-58 -12t-58.5 12t-47.5 32t-32 47.5t-12 58.5h100z" />
    <glyph glyph-name="gbreve" unicode="&#x11f;" horiz-adv-x="861" 
d="M791 0h-100v70q-49 -33 -103.5 -51.5t-117.5 -18.5q-83 0 -156 31.5t-127 85.5t-85.5 127t-31.5 156t31.5 156t85.5 127t127 85.5t156 31.5q90 0 166.5 -36t132.5 -98l-74 -66q-42 47 -99.5 73.5t-124.5 26.5q-63 0 -117.5 -23.5t-95.5 -64.5t-64.5 -95.5t-23.5 -117.5
t23.5 -117.5t64.5 -95.5t95.5 -64.5t117.5 -23.5q68 0 123 27t97 74h-271v100l371 1v-300zM380 992q0 -21 14.5 -35.5t35.5 -14.5t35.5 14.5t14.5 35.5h100q0 -31 -12 -58.5t-32.5 -47.5t-47.5 -32t-58 -12t-58.5 12t-47.5 32t-32 47.5t-12 58.5h100z" />
    <glyph glyph-name="Gdotaccent" unicode="&#x120;" horiz-adv-x="861" 
d="M791 0h-100v70q-49 -33 -103.5 -51.5t-117.5 -18.5q-83 0 -156 31.5t-127 85.5t-85.5 127t-31.5 156t31.5 156t85.5 127t127 85.5t156 31.5q90 0 166.5 -36t132.5 -98l-74 -66q-42 47 -99.5 73.5t-124.5 26.5q-63 0 -117.5 -23.5t-95.5 -64.5t-64.5 -95.5t-23.5 -117.5
t23.5 -117.5t64.5 -95.5t95.5 -64.5t117.5 -23.5q68 0 123 27t97 74h-271v100l371 1v-300zM380 892q0 21 14.5 35.5t35.5 14.5t35.5 -14.5t14.5 -35.5t-14.5 -35.5t-35.5 -14.5t-35.5 14.5t-14.5 35.5z" />
    <glyph glyph-name="gdotaccent" unicode="&#x121;" horiz-adv-x="861" 
d="M791 0h-100v70q-49 -33 -103.5 -51.5t-117.5 -18.5q-83 0 -156 31.5t-127 85.5t-85.5 127t-31.5 156t31.5 156t85.5 127t127 85.5t156 31.5q90 0 166.5 -36t132.5 -98l-74 -66q-42 47 -99.5 73.5t-124.5 26.5q-63 0 -117.5 -23.5t-95.5 -64.5t-64.5 -95.5t-23.5 -117.5
t23.5 -117.5t64.5 -95.5t95.5 -64.5t117.5 -23.5q68 0 123 27t97 74h-271v100l371 1v-300zM380 892q0 21 14.5 35.5t35.5 14.5t35.5 -14.5t14.5 -35.5t-14.5 -35.5t-35.5 -14.5t-35.5 14.5t-14.5 35.5z" />
    <glyph glyph-name="uni0122" unicode="&#x122;" horiz-adv-x="861" 
d="M791 0h-100v70q-49 -33 -103.5 -51.5t-117.5 -18.5q-83 0 -156 31.5t-127 85.5t-85.5 127t-31.5 156t31.5 156t85.5 127t127 85.5t156 31.5q90 0 166.5 -36t132.5 -98l-74 -66q-42 47 -99.5 73.5t-124.5 26.5q-63 0 -117.5 -23.5t-95.5 -64.5t-64.5 -95.5t-23.5 -117.5
t23.5 -117.5t64.5 -95.5t95.5 -64.5t117.5 -23.5q68 0 123 27t97 74h-271v100l371 1v-300zM380 -92q0 21 14.5 35.5t35.5 14.5t35.5 -14.5t14.5 -35.5l-49 -150h-51v150z" />
    <glyph glyph-name="uni0123" unicode="&#x123;" horiz-adv-x="861" 
d="M791 0h-100v70q-49 -33 -103.5 -51.5t-117.5 -18.5q-83 0 -156 31.5t-127 85.5t-85.5 127t-31.5 156t31.5 156t85.5 127t127 85.5t156 31.5q90 0 166.5 -36t132.5 -98l-74 -66q-42 47 -99.5 73.5t-124.5 26.5q-63 0 -117.5 -23.5t-95.5 -64.5t-64.5 -95.5t-23.5 -117.5
t23.5 -117.5t64.5 -95.5t95.5 -64.5t117.5 -23.5q68 0 123 27t97 74h-271v100l371 1v-300zM380 -92q0 21 14.5 35.5t35.5 14.5t35.5 -14.5t14.5 -35.5l-49 -150h-51v150z" />
    <glyph glyph-name="Hcircumflex" unicode="&#x124;" horiz-adv-x="640" 
d="M470 200h-300v-200h-100v800h100v-500h300v500h100v-800h-100v200zM247 842h-118l136 200h109l136 -200h-118l-72 102z" />
    <glyph glyph-name="hcircumflex" unicode="&#x125;" horiz-adv-x="640" 
d="M470 200h-300v-200h-100v800h100v-500h300v500h100v-800h-100v200zM247 842h-118l136 200h109l136 -200h-118l-72 102z" />
    <glyph glyph-name="Hbar" unicode="&#x126;" horiz-adv-x="640" 
d="M470 200h-300v-200h-100v800h100v-200h300v200h100v-800h-100v200zM470 300v200h-300v-200h300z" />
    <glyph glyph-name="hbar" unicode="&#x127;" horiz-adv-x="640" 
d="M470 200h-300v-200h-100v800h100v-200h300v200h100v-800h-100v200zM470 300v200h-300v-200h300z" />
    <glyph glyph-name="Itilde" unicode="&#x128;" 
d="M70 800h100v-800h-100v800zM81 864q-29 10 -61 5t-52 -28l-1 102q34 14 71 19t74 -7q18 -6 39.5 -11.5t42.5 -8.5t41.5 -1t37.5 13l1 -99q-45 -10 -95 -4.5t-98 20.5z" />
    <glyph glyph-name="itilde" unicode="&#x129;" 
d="M70 800h100v-800h-100v800zM81 864q-29 10 -61 5t-52 -28l-1 102q34 14 71 19t74 -7q18 -6 39.5 -11.5t42.5 -8.5t41.5 -1t37.5 13l1 -99q-45 -10 -95 -4.5t-98 20.5z" />
    <glyph glyph-name="Imacron" unicode="&#x12a;" 
d="M70 800h100v-800h-100v800zM-30 942h300v-84h-300v84z" />
    <glyph glyph-name="imacron" unicode="&#x12b;" 
d="M70 800h100v-800h-100v800zM-30 942h300v-84h-300v84z" />
    <glyph glyph-name="Ibreve" unicode="&#x12c;" 
d="M70 800h100v-800h-100v800zM70 992q0 -21 14.5 -35.5t35.5 -14.5t35.5 14.5t14.5 35.5h100q0 -31 -12 -58.5t-32.5 -47.5t-47.5 -32t-58 -12t-58.5 12t-47.5 32t-32 47.5t-12 58.5h100z" />
    <glyph glyph-name="ibreve" unicode="&#x12d;" 
d="M70 800h100v-800h-100v800zM70 992q0 -21 14.5 -35.5t35.5 -14.5t35.5 14.5t14.5 35.5h100q0 -31 -12 -58.5t-32.5 -47.5t-47.5 -32t-58 -12t-58.5 12t-47.5 32t-32 47.5t-12 58.5h100z" />
    <glyph glyph-name="Iogonek" unicode="&#x12e;" 
d="M70 800h100v-800h-13l97 -148h-75l-99 148h-10v800z" />
    <glyph glyph-name="iogonek" unicode="&#x12f;" 
d="M70 800h100v-800h-12l97 -148h-75l-99 148h-11v800z" />
    <glyph glyph-name="Idotaccent" unicode="&#x130;" 
d="M70 800h100v-800h-100v800zM70 892q0 21 14.5 35.5t35.5 14.5t35.5 -14.5t14.5 -35.5t-14.5 -35.5t-35.5 -14.5t-35.5 14.5t-14.5 35.5z" />
    <glyph glyph-name="dotlessi" unicode="&#x131;" 
d="M70 800h100v-800h-100v800z" />
    <glyph glyph-name="IJ" unicode="&#x132;" horiz-adv-x="741" 
d="M70 800h100v-800h-100v800zM370 200q0 -42 29 -71t71 -29t71 29t29 71l1 600h100l-1 -600q0 -41 -16 -77.5t-43 -63.5t-63.5 -43t-77.5 -16t-77.5 16t-63.5 43t-43 63.5t-16 77.5h100z" />
    <glyph glyph-name="ij" unicode="&#x133;" horiz-adv-x="741" 
d="M70 800h100v-800h-100v800zM370 200q0 -42 29 -71t71 -29t71 29t29 71l1 600h100l-1 -600q0 -41 -16 -77.5t-43 -63.5t-63.5 -43t-77.5 -16t-77.5 16t-63.5 43t-43 63.5t-16 77.5h100z" />
    <glyph glyph-name="Jcircumflex" unicode="&#x134;" horiz-adv-x="541" 
d="M170 200q0 -42 29 -71t71 -29t71 29t29 71l1 600h100l-1 -600q0 -41 -16 -77.5t-43 -63.5t-63.5 -43t-77.5 -16t-77.5 16t-63.5 43t-43 63.5t-16 77.5h100zM346 838h-118l136 200h109l136 -200h-118l-72 102z" />
    <glyph glyph-name="jcircumflex" unicode="&#x135;" horiz-adv-x="541" 
d="M170 200q0 -42 29 -71t71 -29t71 29t29 71l1 600h100l-1 -600q0 -41 -16 -77.5t-43 -63.5t-63.5 -43t-77.5 -16t-77.5 16t-63.5 43t-43 63.5t-16 77.5h100zM346 838h-118l136 200h109l136 -200h-118l-72 102z" />
    <glyph glyph-name="uni0136" unicode="&#x136;" horiz-adv-x="644" 
d="M70 800h100v-501l288 501h116l-230 -400l230 -400h-116l-172 299l-116 -202v-97h-100v800zM272 -92q0 21 14.5 35.5t35.5 14.5t35.5 -14.5t14.5 -35.5l-49 -150h-51v150z" />
    <glyph glyph-name="uni0137" unicode="&#x137;" horiz-adv-x="644" 
d="M70 800h100v-501l288 501h116l-230 -400l230 -400h-116l-172 299l-116 -202v-97h-100v800zM272 -92q0 21 14.5 35.5t35.5 14.5t35.5 -14.5t14.5 -35.5l-49 -150h-51v150z" />
    <glyph glyph-name="kgreenlandic" unicode="&#x138;" horiz-adv-x="644" 
d="M70 800h100v-501l288 501h116l-230 -400l230 -400h-116l-172 299l-116 -202v-97h-100v800z" />
    <glyph glyph-name="Lacute" unicode="&#x139;" horiz-adv-x="541" 
d="M70 800h100v-700h301v-100h-401v800zM399 940l-123 -100h-135l121 100h137z" />
    <glyph glyph-name="lacute" unicode="&#x13a;" horiz-adv-x="541" 
d="M70 800h100v-700h301v-100h-401v800zM399 940l-123 -100h-135l121 100h137z" />
    <glyph glyph-name="uni013B" unicode="&#x13b;" horiz-adv-x="541" 
d="M70 800h100v-700h301v-100h-401v800zM220 -92q0 21 14.5 35.5t35.5 14.5t35.5 -14.5t14.5 -35.5l-49 -150h-51v150z" />
    <glyph glyph-name="uni013C" unicode="&#x13c;" horiz-adv-x="541" 
d="M70 800h100v-700h301v-100h-401v800zM220 -92q0 21 14.5 35.5t35.5 14.5t35.5 -14.5t14.5 -35.5l-49 -150h-51v150z" />
    <glyph glyph-name="Lcaron" unicode="&#x13d;" horiz-adv-x="541" 
d="M70 800h100v-700h301v-100h-401v800zM220 750q0 21 14.5 35.5t35.5 14.5t35.5 -14.5t14.5 -35.5l-23 -150h-51z" />
    <glyph glyph-name="lcaron" unicode="&#x13e;" horiz-adv-x="541" 
d="M70 800h100v-700h301v-100h-401v800zM220 750q0 21 14.5 35.5t35.5 14.5t35.5 -14.5t14.5 -35.5l-23 -150h-51z" />
    <glyph glyph-name="Ldot" unicode="&#x13f;" horiz-adv-x="541" 
d="M70 800h100v-700h301v-100h-401v800zM220 400q0 21 14.5 35.5t35.5 14.5t35.5 -14.5t14.5 -35.5t-14.5 -35.5t-35.5 -14.5t-35.5 14.5t-14.5 35.5z" />
    <glyph glyph-name="ldot" unicode="&#x140;" horiz-adv-x="541" 
d="M70 800h100v-700h301v-100h-401v800zM220 400q0 21 14.5 35.5t35.5 14.5t35.5 -14.5t14.5 -35.5t-14.5 -35.5t-35.5 -14.5t-35.5 14.5t-14.5 35.5z" />
    <glyph glyph-name="Lslash" unicode="&#x141;" horiz-adv-x="591" 
d="M70 373l50 46v381h100v-289l50 47v-136l-50 -46v-276h301v-100h-401v284l-50 -46v135z" />
    <glyph glyph-name="lslash" unicode="&#x142;" horiz-adv-x="591" 
d="M70 373l50 46v381h100v-289l50 47v-136l-50 -46v-276h301v-100h-401v284l-50 -46v135z" />
    <glyph glyph-name="Nacute" unicode="&#x143;" horiz-adv-x="689" 
d="M170 603v-603h-100v800h102l347 -599v599h100v-800h-100zM473 940l-123 -100h-135l121 100h137z" />
    <glyph glyph-name="nacute" unicode="&#x144;" horiz-adv-x="689" 
d="M170 603v-603h-100v800h102l347 -599v599h100v-800h-100zM473 940l-123 -100h-135l121 100h137z" />
    <glyph glyph-name="uni0145" unicode="&#x145;" horiz-adv-x="689" 
d="M170 603v-603h-100v800h102l347 -599v599h100v-800h-100zM294 -92q0 21 14.5 35.5t35.5 14.5t35.5 -14.5t14.5 -35.5l-49 -150h-51v150z" />
    <glyph glyph-name="uni0146" unicode="&#x146;" horiz-adv-x="689" 
d="M170 603v-603h-100v800h102l347 -599v599h100v-800h-100zM294 -92q0 21 14.5 35.5t35.5 14.5t35.5 -14.5t14.5 -35.5l-49 -150h-51v150z" />
    <glyph glyph-name="Ncaron" unicode="&#x147;" horiz-adv-x="689" 
d="M170 603v-603h-100v800h102l347 -599v599h100v-800h-100zM345 940l72 102h118l-136 -200h-109l-136 200h118z" />
    <glyph glyph-name="ncaron" unicode="&#x148;" horiz-adv-x="689" 
d="M170 603v-603h-100v800h102l347 -599v599h100v-800h-100zM345 940l72 102h118l-136 -200h-109l-136 200h118z" />
    <glyph glyph-name="napostrophe" unicode="&#x149;" horiz-adv-x="861" 
d="M342 603v-603h-100v800h102l347 -599v599h100v-800h-100zM70 750q0 21 14.5 35.5t35.5 14.5t35.5 -14.5t14.5 -35.5l-49 -150h-51v150z" />
    <glyph glyph-name="Eng" unicode="&#x14a;" horiz-adv-x="689" 
d="M418 -236q-54 0 -98.5 26t-71.5 68l79 65q11 -26 35.5 -42.5t55.5 -16.5q42 0 71 29t29 71v37l-348 602v-603h-100v800h102l346 -598l1 598h100l-1 -836q0 -41 -16 -77.5t-43 -63.5t-63.5 -43t-77.5 -16z" />
    <glyph glyph-name="eng" unicode="&#x14b;" horiz-adv-x="689" 
d="M418 -236q-54 0 -98.5 26t-71.5 68l79 65q11 -26 35.5 -42.5t55.5 -16.5q42 0 71 29t29 71v37l-348 602v-603h-100v800h102l346 -598l1 598h100l-1 -836q0 -41 -16 -77.5t-43 -63.5t-63.5 -43t-77.5 -16z" />
    <glyph glyph-name="Omacron" unicode="&#x14c;" horiz-adv-x="940" 
d="M70 400q0 83 31.5 156t85.5 127t127 85.5t156 31.5t156 -31.5t127 -85.5t85.5 -127t31.5 -156t-31.5 -156t-85.5 -127t-127 -85.5t-156 -31.5t-156 31.5t-127 85.5t-85.5 127t-31.5 156zM170 399q0 -63 23.5 -117.5t64.5 -95.5t95.5 -64.5t117.5 -23.5t117.5 23.5
t95.5 64.5t64.5 95.5t23.5 117.5t-23.5 117.5t-64.5 95.5t-95.5 64.5t-117.5 23.5t-117.5 -23.5t-95.5 -64.5t-64.5 -95.5t-23.5 -117.5zM320 942h300v-84h-300v84z" />
    <glyph glyph-name="omacron" unicode="&#x14d;" horiz-adv-x="740" 
d="M70 500q0 62 23.5 117t64 95.5t95.5 64t117 23.5t117 -23.5t95.5 -64t64 -95.5t23.5 -117t-23.5 -117t-64 -95.5t-95.5 -64t-117 -23.5t-117 23.5t-95.5 64t-64 95.5t-23.5 117zM170 498q0 -41 16 -77.5t43 -63.5t63.5 -43t77.5 -16t77.5 16t63.5 43t43 63.5t16 77.5
t-16 77.5t-43 63.5t-63.5 43t-77.5 16t-77.5 -16t-63.5 -43t-43 -63.5t-16 -77.5zM170 100h400v-100h-400v100zM220 942h300v-84h-300v84z" />
    <glyph glyph-name="Obreve" unicode="&#x14e;" horiz-adv-x="940" 
d="M70 400q0 83 31.5 156t85.5 127t127 85.5t156 31.5t156 -31.5t127 -85.5t85.5 -127t31.5 -156t-31.5 -156t-85.5 -127t-127 -85.5t-156 -31.5t-156 31.5t-127 85.5t-85.5 127t-31.5 156zM170 399q0 -63 23.5 -117.5t64.5 -95.5t95.5 -64.5t117.5 -23.5t117.5 23.5
t95.5 64.5t64.5 95.5t23.5 117.5t-23.5 117.5t-64.5 95.5t-95.5 64.5t-117.5 23.5t-117.5 -23.5t-95.5 -64.5t-64.5 -95.5t-23.5 -117.5zM420 992q0 -21 14.5 -35.5t35.5 -14.5t35.5 14.5t14.5 35.5h100q0 -31 -12 -58.5t-32.5 -47.5t-47.5 -32t-58 -12t-58.5 12t-47.5 32
t-32 47.5t-12 58.5h100z" />
    <glyph glyph-name="obreve" unicode="&#x14f;" horiz-adv-x="740" 
d="M70 500q0 62 23.5 117t64 95.5t95.5 64t117 23.5t117 -23.5t95.5 -64t64 -95.5t23.5 -117t-23.5 -117t-64 -95.5t-95.5 -64t-117 -23.5t-117 23.5t-95.5 64t-64 95.5t-23.5 117zM170 498q0 -41 16 -77.5t43 -63.5t63.5 -43t77.5 -16t77.5 16t63.5 43t43 63.5t16 77.5
t-16 77.5t-43 63.5t-63.5 43t-77.5 16t-77.5 -16t-63.5 -43t-43 -63.5t-16 -77.5zM170 100h400v-100h-400v100zM320 992q0 -21 14.5 -35.5t35.5 -14.5t35.5 14.5t14.5 35.5h100q0 -31 -12 -58.5t-32.5 -47.5t-47.5 -32t-58 -12t-58.5 12t-47.5 32t-32 47.5t-12 58.5h100z
" />
    <glyph glyph-name="Ohungarumlaut" unicode="&#x150;" horiz-adv-x="940" 
d="M70 400q0 83 31.5 156t85.5 127t127 85.5t156 31.5t156 -31.5t127 -85.5t85.5 -127t31.5 -156t-31.5 -156t-85.5 -127t-127 -85.5t-156 -31.5t-156 31.5t-127 85.5t-85.5 127t-31.5 156zM170 399q0 -63 23.5 -117.5t64.5 -95.5t95.5 -64.5t117.5 -23.5t117.5 23.5
t95.5 64.5t64.5 95.5t23.5 117.5t-23.5 117.5t-64.5 95.5t-95.5 64.5t-117.5 23.5t-117.5 -23.5t-95.5 -64.5t-64.5 -95.5t-23.5 -117.5zM479 1000l-88 -160h-97l87 160h98zM645 1000l-89 -160h-96l86 160h99z" />
    <glyph glyph-name="ohungarumlaut" unicode="&#x151;" horiz-adv-x="740" 
d="M70 500q0 62 23.5 117t64 95.5t95.5 64t117 23.5t117 -23.5t95.5 -64t64 -95.5t23.5 -117t-23.5 -117t-64 -95.5t-95.5 -64t-117 -23.5t-117 23.5t-95.5 64t-64 95.5t-23.5 117zM170 498q0 -41 16 -77.5t43 -63.5t63.5 -43t77.5 -16t77.5 16t63.5 43t43 63.5t16 77.5
t-16 77.5t-43 63.5t-63.5 43t-77.5 16t-77.5 -16t-63.5 -43t-43 -63.5t-16 -77.5zM170 100h400v-100h-400v100zM379 1000l-88 -160h-97l87 160h98zM545 1000l-89 -160h-96l86 160h99z" />
    <glyph glyph-name="OE" unicode="&#x152;" horiz-adv-x="991" 
d="M920 800v-100h-350v-400h250v-100h-250v-100h351v-100h-451q-83 0 -156 31.5t-127 85.5t-85.5 127t-31.5 156t31.5 156t85.5 127t127 85.5t156 31.5h450zM170 399q0 -63 23.5 -117.5t64 -95.5t95 -64.5t117.5 -23.5v602q-63 0 -117.5 -24t-95 -64.5t-64 -95.5t-23.5 -117
z" />
    <glyph glyph-name="oe" unicode="&#x153;" horiz-adv-x="991" 
d="M920 800v-100h-350v-400h250v-100h-250v-100h351v-100h-451q-83 0 -156 31.5t-127 85.5t-85.5 127t-31.5 156t31.5 156t85.5 127t127 85.5t156 31.5h450zM170 399q0 -63 23.5 -117.5t64 -95.5t95 -64.5t117.5 -23.5v602q-63 0 -117.5 -24t-95 -64.5t-64 -95.5t-23.5 -117
z" />
    <glyph glyph-name="Racute" unicode="&#x154;" horiz-adv-x="556" 
d="M70 800l100 -1q5 1 16 1q62 0 117 -23.5t95.5 -64t64 -95.5t23.5 -117q0 -81 -39 -148t-103 -107l141 -245h-116l-119 207q-29 -7 -64 -7h-16v-200h-100v800zM186 698q-11 0 -16 -1v-398h16q41 0 77.5 15.5t63.5 42.5t43 63.5t16 77.5t-16 77.5t-43 63.5t-63.5 43
t-77.5 16zM407 940l-123 -100h-135l121 100h137z" />
    <glyph glyph-name="racute" unicode="&#x155;" horiz-adv-x="556" 
d="M70 800l100 -1q5 1 16 1q62 0 117 -23.5t95.5 -64t64 -95.5t23.5 -117q0 -81 -39 -148t-103 -107l141 -245h-116l-119 207q-29 -7 -64 -7h-16v-200h-100v800zM186 698q-11 0 -16 -1v-398h16q41 0 77.5 15.5t63.5 42.5t43 63.5t16 77.5t-16 77.5t-43 63.5t-63.5 43
t-77.5 16zM407 940l-123 -100h-135l121 100h137z" />
    <glyph glyph-name="uni0156" unicode="&#x156;" horiz-adv-x="556" 
d="M70 800l100 -1q5 1 16 1q62 0 117 -23.5t95.5 -64t64 -95.5t23.5 -117q0 -81 -39 -148t-103 -107l141 -245h-116l-119 207q-29 -7 -64 -7h-16v-200h-100v800zM186 698q-11 0 -16 -1v-398h16q41 0 77.5 15.5t63.5 42.5t43 63.5t16 77.5t-16 77.5t-43 63.5t-63.5 43
t-77.5 16zM228 -92q0 21 14.5 35.5t35.5 14.5t35.5 -14.5t14.5 -35.5l-49 -150h-51v150z" />
    <glyph glyph-name="uni0157" unicode="&#x157;" horiz-adv-x="556" 
d="M70 800l100 -1q5 1 16 1q62 0 117 -23.5t95.5 -64t64 -95.5t23.5 -117q0 -81 -39 -148t-103 -107l141 -245h-116l-119 207q-29 -7 -64 -7h-16v-200h-100v800zM186 698q-11 0 -16 -1v-398h16q41 0 77.5 15.5t63.5 42.5t43 63.5t16 77.5t-16 77.5t-43 63.5t-63.5 43
t-77.5 16zM228 -92q0 21 14.5 35.5t35.5 14.5t35.5 -14.5t14.5 -35.5l-49 -150h-51v150z" />
    <glyph glyph-name="Rcaron" unicode="&#x158;" horiz-adv-x="593" 
d="M107 800l100 -1q5 1 16 1q62 0 117 -23.5t95.5 -64t64 -95.5t23.5 -117q0 -81 -39 -148t-103 -107l141 -245h-116l-119 207q-29 -7 -64 -7h-16v-200h-100v800zM223 698q-11 0 -16 -1v-398h16q41 0 77.5 15.5t63.5 42.5t43 63.5t16 77.5t-16 77.5t-43 63.5t-63.5 43
t-77.5 16zM261 942l72 102h118l-136 -200h-109l-136 200h118z" />
    <glyph glyph-name="rcaron" unicode="&#x159;" horiz-adv-x="593" 
d="M107 800l100 -1q5 1 16 1q62 0 117 -23.5t95.5 -64t64 -95.5t23.5 -117q0 -81 -39 -148t-103 -107l141 -245h-116l-119 207q-29 -7 -64 -7h-16v-200h-100v800zM223 698q-11 0 -16 -1v-398h16q41 0 77.5 15.5t63.5 42.5t43 63.5t16 77.5t-16 77.5t-43 63.5t-63.5 43
t-77.5 16zM261 942l72 102h118l-136 -200h-109l-136 200h118z" />
    <glyph glyph-name="Sacute" unicode="&#x15a;" horiz-adv-x="664" 
d="M268 800q43 0 79.5 -16t61.5 -44l-74 -59q-13 14 -30.5 22t-39.5 8q-20 0 -37.5 -6.5t-31 -18t-21.5 -27.5t-8 -35v-5q0 -33 23 -54t68 -24q86 -5 149.5 -27t105 -57t61.5 -81t20 -100v-10q-2 -56 -26 -104.5t-64.5 -84.5t-93.5 -56.5t-113 -20.5q-66 0 -121.5 25.5
t-93.5 68.5l77 59q26 -29 61.5 -43t79.5 -14q39 0 74.5 13t62.5 36t43.5 54.5t17.5 68.5v7q0 50 -22.5 81.5t-58 49.5t-79 26.5t-86.5 12.5q-40 4 -73.5 17.5t-57.5 36t-37.5 52t-13.5 65.5v5q1 37 17.5 69.5t43.5 57t62.5 38.5t74.5 14zM461 940l-123 -100h-135l121 100
h137z" />
    <glyph glyph-name="sacute" unicode="&#x15b;" horiz-adv-x="664" 
d="M268 800q43 0 79.5 -16t61.5 -44l-74 -59q-13 14 -30.5 22t-39.5 8q-20 0 -37.5 -6.5t-31 -18t-21.5 -27.5t-8 -35v-5q0 -33 23 -54t68 -24q86 -5 149.5 -27t105 -57t61.5 -81t20 -100v-10q-2 -56 -26 -104.5t-64.5 -84.5t-93.5 -56.5t-113 -20.5q-66 0 -121.5 25.5
t-93.5 68.5l77 59q26 -29 61.5 -43t79.5 -14q39 0 74.5 13t62.5 36t43.5 54.5t17.5 68.5v7q0 50 -22.5 81.5t-58 49.5t-79 26.5t-86.5 12.5q-40 4 -73.5 17.5t-57.5 36t-37.5 52t-13.5 65.5v5q1 37 17.5 69.5t43.5 57t62.5 38.5t74.5 14zM461 940l-123 -100h-135l121 100
h137z" />
    <glyph glyph-name="Scircumflex" unicode="&#x15c;" horiz-adv-x="664" 
d="M268 800q43 0 79.5 -16t61.5 -44l-74 -59q-13 14 -30.5 22t-39.5 8q-20 0 -37.5 -6.5t-31 -18t-21.5 -27.5t-8 -35v-5q0 -33 23 -54t68 -24q86 -5 149.5 -27t105 -57t61.5 -81t20 -100v-10q-2 -56 -26 -104.5t-64.5 -84.5t-93.5 -56.5t-113 -20.5q-66 0 -121.5 25.5
t-93.5 68.5l77 59q26 -29 61.5 -43t79.5 -14q39 0 74.5 13t62.5 36t43.5 54.5t17.5 68.5v7q0 50 -22.5 81.5t-58 49.5t-79 26.5t-86.5 12.5q-40 4 -73.5 17.5t-57.5 36t-37.5 52t-13.5 65.5v5q1 37 17.5 69.5t43.5 57t62.5 38.5t74.5 14zM197 842h-118l136 200h109l136 -200
h-118l-72 102z" />
    <glyph glyph-name="scircumflex" unicode="&#x15d;" horiz-adv-x="664" 
d="M268 800q43 0 79.5 -16t61.5 -44l-74 -59q-13 14 -30.5 22t-39.5 8q-20 0 -37.5 -6.5t-31 -18t-21.5 -27.5t-8 -35v-5q0 -33 23 -54t68 -24q86 -5 149.5 -27t105 -57t61.5 -81t20 -100v-10q-2 -56 -26 -104.5t-64.5 -84.5t-93.5 -56.5t-113 -20.5q-66 0 -121.5 25.5
t-93.5 68.5l77 59q26 -29 61.5 -43t79.5 -14q39 0 74.5 13t62.5 36t43.5 54.5t17.5 68.5v7q0 50 -22.5 81.5t-58 49.5t-79 26.5t-86.5 12.5q-40 4 -73.5 17.5t-57.5 36t-37.5 52t-13.5 65.5v5q1 37 17.5 69.5t43.5 57t62.5 38.5t74.5 14zM197 842h-118l136 200h109l136 -200
h-118l-72 102z" />
    <glyph glyph-name="Scedilla" unicode="&#x15e;" horiz-adv-x="664" 
d="M268 800q43 0 79.5 -16t61.5 -44l-74 -59q-13 14 -30.5 22t-39.5 8q-20 0 -37.5 -6.5t-31 -18t-21.5 -27.5t-8 -35v-5q0 -33 23 -54t68 -24q86 -5 149.5 -27t105 -57t61.5 -81t20 -100v-10q-2 -48 -21 -91.5t-50.5 -77.5t-73.5 -58t-91 -33l-99 -148h-117l97 147
q-48 10 -88 33t-69 56l77 59q26 -29 61.5 -43t79.5 -14q39 0 74.5 13t62.5 36t43.5 54.5t17.5 68.5v7q0 50 -22.5 81.5t-58 49.5t-79 26.5t-86.5 12.5q-40 4 -73.5 17.5t-57.5 36t-37.5 52t-13.5 65.5v5q1 37 17.5 69.5t43.5 57t62.5 38.5t74.5 14z" />
    <glyph glyph-name="scedilla" unicode="&#x15f;" horiz-adv-x="664" 
d="M268 800q43 0 79.5 -16t61.5 -44l-74 -59q-13 14 -30.5 22t-39.5 8q-20 0 -37.5 -6.5t-31 -18t-21.5 -27.5t-8 -35v-5q0 -33 23 -54t68 -24q86 -5 149.5 -27t105 -57t61.5 -81t20 -100v-10q-2 -48 -21 -91.5t-50.5 -77.5t-73.5 -58t-91 -33l-99 -148h-117l97 147
q-48 10 -88 33t-69 56l77 59q26 -29 61.5 -43t79.5 -14q39 0 74.5 13t62.5 36t43.5 54.5t17.5 68.5v7q0 50 -22.5 81.5t-58 49.5t-79 26.5t-86.5 12.5q-40 4 -73.5 17.5t-57.5 36t-37.5 52t-13.5 65.5v5q1 37 17.5 69.5t43.5 57t62.5 38.5t74.5 14z" />
    <glyph glyph-name="Scaron" unicode="&#x160;" horiz-adv-x="664" 
d="M268 800q43 0 79.5 -16t61.5 -44l-74 -59q-13 14 -30.5 22t-39.5 8q-20 0 -37.5 -6.5t-31 -18t-21.5 -27.5t-8 -35v-5q0 -33 23 -54t68 -24q86 -5 149.5 -27t105 -57t61.5 -81t20 -100v-10q-2 -56 -26 -104.5t-64.5 -84.5t-93.5 -56.5t-113 -20.5q-66 0 -121.5 25.5
t-93.5 68.5l77 59q26 -29 61.5 -43t79.5 -14q39 0 74.5 13t62.5 36t43.5 54.5t17.5 68.5v7q0 50 -22.5 81.5t-58 49.5t-79 26.5t-86.5 12.5q-40 4 -73.5 17.5t-57.5 36t-37.5 52t-13.5 65.5v5q1 37 17.5 69.5t43.5 57t62.5 38.5t74.5 14zM262 938l72 102h118l-136 -200h-109
l-136 200h118z" />
    <glyph glyph-name="scaron" unicode="&#x161;" horiz-adv-x="664" 
d="M268 800q43 0 79.5 -16t61.5 -44l-74 -59q-13 14 -30.5 22t-39.5 8q-20 0 -37.5 -6.5t-31 -18t-21.5 -27.5t-8 -35v-5q0 -33 23 -54t68 -24q86 -5 149.5 -27t105 -57t61.5 -81t20 -100v-10q-2 -56 -26 -104.5t-64.5 -84.5t-93.5 -56.5t-113 -20.5q-66 0 -121.5 25.5
t-93.5 68.5l77 59q26 -29 61.5 -43t79.5 -14q39 0 74.5 13t62.5 36t43.5 54.5t17.5 68.5v7q0 50 -22.5 81.5t-58 49.5t-79 26.5t-86.5 12.5q-40 4 -73.5 17.5t-57.5 36t-37.5 52t-13.5 65.5v5q1 37 17.5 69.5t43.5 57t62.5 38.5t74.5 14zM262 938l72 102h118l-136 -200h-109
l-136 200h118z" />
    <glyph glyph-name="uni0162" unicode="&#x162;" horiz-adv-x="540" 
d="M70 800h400v-100h-150v-700h-100v700h-150v100zM220 -92q0 21 14.5 35.5t35.5 14.5t35.5 -14.5t14.5 -35.5l-49 -150h-51v150z" />
    <glyph glyph-name="uni0163" unicode="&#x163;" horiz-adv-x="540" 
d="M70 800h400v-100h-150v-700h-100v700h-150v100zM220 -92q0 21 14.5 35.5t35.5 14.5t35.5 -14.5t14.5 -35.5l-49 -150h-51v150z" />
    <glyph glyph-name="Tcaron" unicode="&#x164;" horiz-adv-x="540" 
d="M70 800h400v-100h-150v-700h-100v700h-150v100zM270 940l72 102h118l-136 -200h-109l-136 200h118z" />
    <glyph glyph-name="tcaron" unicode="&#x165;" horiz-adv-x="540" 
d="M70 800h400v-100h-150v-700h-100v700h-150v100zM270 940l72 102h118l-136 -200h-109l-136 200h118z" />
    <glyph glyph-name="Tbar" unicode="&#x166;" horiz-adv-x="540" 
d="M70 800h400v-100h-150v-100h100v-100h-100v-500h-100v500h-100v100h100v100h-150v100z" />
    <glyph glyph-name="tbar" unicode="&#x167;" horiz-adv-x="540" 
d="M70 800h400v-100h-150v-100h100v-100h-100v-500h-100v500h-100v100h100v100h-150v100z" />
    <glyph glyph-name="Utilde" unicode="&#x168;" horiz-adv-x="788" 
d="M170 400q0 -62 17.5 -116.5t47.5 -95.5t71 -64.5t88 -23.5t88 23.5t71 64.5t47.5 95.5t17.5 116.5v400h100l-2 -400q0 -83 -25.5 -156t-69.5 -127t-102.5 -85.5t-125.5 -31.5t-125.5 31.5t-102.5 85.5t-69.5 127t-25.5 156v400h100v-400zM354 864q-29 10 -61 5t-52 -28
l-1 102q34 14 71 19t74 -7q18 -6 39.5 -11.5t42.5 -8.5t41.5 -1t37.5 13l1 -99q-45 -10 -95 -4.5t-98 20.5z" />
    <glyph glyph-name="utilde" unicode="&#x169;" horiz-adv-x="788" 
d="M170 400q0 -62 17.5 -116.5t47.5 -95.5t71 -64.5t88 -23.5t88 23.5t71 64.5t47.5 95.5t17.5 116.5v400h100l-2 -400q0 -83 -25.5 -156t-69.5 -127t-102.5 -85.5t-125.5 -31.5t-125.5 31.5t-102.5 85.5t-69.5 127t-25.5 156v400h100v-400zM354 864q-29 10 -61 5t-52 -28
l-1 102q34 14 71 19t74 -7q18 -6 39.5 -11.5t42.5 -8.5t41.5 -1t37.5 13l1 -99q-45 -10 -95 -4.5t-98 20.5z" />
    <glyph glyph-name="Umacron" unicode="&#x16a;" horiz-adv-x="788" 
d="M170 400q0 -62 17.5 -116.5t47.5 -95.5t71 -64.5t88 -23.5t88 23.5t71 64.5t47.5 95.5t17.5 116.5v400h100l-2 -400q0 -83 -25.5 -156t-69.5 -127t-102.5 -85.5t-125.5 -31.5t-125.5 31.5t-102.5 85.5t-69.5 127t-25.5 156v400h100v-400zM244 942h300v-84h-300v84z" />
    <glyph glyph-name="umacron" unicode="&#x16b;" horiz-adv-x="788" 
d="M170 400q0 -62 17.5 -116.5t47.5 -95.5t71 -64.5t88 -23.5t88 23.5t71 64.5t47.5 95.5t17.5 116.5v400h100l-2 -400q0 -83 -25.5 -156t-69.5 -127t-102.5 -85.5t-125.5 -31.5t-125.5 31.5t-102.5 85.5t-69.5 127t-25.5 156v400h100v-400zM244 942h300v-84h-300v84z" />
    <glyph glyph-name="Ubreve" unicode="&#x16c;" horiz-adv-x="788" 
d="M170 400q0 -62 17.5 -116.5t47.5 -95.5t71 -64.5t88 -23.5t88 23.5t71 64.5t47.5 95.5t17.5 116.5v400h100l-2 -400q0 -83 -25.5 -156t-69.5 -127t-102.5 -85.5t-125.5 -31.5t-125.5 31.5t-102.5 85.5t-69.5 127t-25.5 156v400h100v-400zM344 992q0 -21 14.5 -35.5
t35.5 -14.5t35.5 14.5t14.5 35.5h100q0 -31 -12 -58.5t-32.5 -47.5t-47.5 -32t-58 -12t-58.5 12t-47.5 32t-32 47.5t-12 58.5h100z" />
    <glyph glyph-name="ubreve" unicode="&#x16d;" horiz-adv-x="788" 
d="M170 400q0 -62 17.5 -116.5t47.5 -95.5t71 -64.5t88 -23.5t88 23.5t71 64.5t47.5 95.5t17.5 116.5v400h100l-2 -400q0 -83 -25.5 -156t-69.5 -127t-102.5 -85.5t-125.5 -31.5t-125.5 31.5t-102.5 85.5t-69.5 127t-25.5 156v400h100v-400zM344 992q0 -21 14.5 -35.5
t35.5 -14.5t35.5 14.5t14.5 35.5h100q0 -31 -12 -58.5t-32.5 -47.5t-47.5 -32t-58 -12t-58.5 12t-47.5 32t-32 47.5t-12 58.5h100z" />
    <glyph glyph-name="Uring" unicode="&#x16e;" horiz-adv-x="788" 
d="M170 400q0 -62 17.5 -116.5t47.5 -95.5t71 -64.5t88 -23.5t88 23.5t71 64.5t47.5 95.5t17.5 116.5v400h100l-2 -400q0 -83 -25.5 -156t-69.5 -127t-102.5 -85.5t-125.5 -31.5t-125.5 31.5t-102.5 85.5t-69.5 127t-25.5 156v400h100v-400zM244 992q0 31 12 58t32 47.5
t47.5 32.5t58.5 12t58 -12t47.5 -32.5t32.5 -47.5t12 -58t-12 -58.5t-32.5 -47.5t-47.5 -32t-58 -12t-58.5 12t-47.5 32t-32 47.5t-12 58.5zM344 992q0 -21 14.5 -35.5t35.5 -14.5t35.5 14.5t14.5 35.5t-14.5 35.5t-35.5 14.5t-35.5 -14.5t-14.5 -35.5z" />
    <glyph glyph-name="uring" unicode="&#x16f;" horiz-adv-x="788" 
d="M170 400q0 -62 17.5 -116.5t47.5 -95.5t71 -64.5t88 -23.5t88 23.5t71 64.5t47.5 95.5t17.5 116.5v400h100l-2 -400q0 -83 -25.5 -156t-69.5 -127t-102.5 -85.5t-125.5 -31.5t-125.5 31.5t-102.5 85.5t-69.5 127t-25.5 156v400h100v-400zM244 992q0 31 12 58t32 47.5
t47.5 32.5t58.5 12t58 -12t47.5 -32.5t32.5 -47.5t12 -58t-12 -58.5t-32.5 -47.5t-47.5 -32t-58 -12t-58.5 12t-47.5 32t-32 47.5t-12 58.5zM344 992q0 -21 14.5 -35.5t35.5 -14.5t35.5 14.5t14.5 35.5t-14.5 35.5t-35.5 14.5t-35.5 -14.5t-14.5 -35.5z" />
    <glyph glyph-name="Uhungarumlaut" unicode="&#x170;" horiz-adv-x="788" 
d="M170 400q0 -62 17.5 -116.5t47.5 -95.5t71 -64.5t88 -23.5t88 23.5t71 64.5t47.5 95.5t17.5 116.5v400h100l-2 -400q0 -83 -25.5 -156t-69.5 -127t-102.5 -85.5t-125.5 -31.5t-125.5 31.5t-102.5 85.5t-69.5 127t-25.5 156v400h100v-400zM403 1000l-88 -160h-97l87 160
h98zM569 1000l-89 -160h-96l86 160h99z" />
    <glyph glyph-name="uhungarumlaut" unicode="&#x171;" horiz-adv-x="788" 
d="M170 400q0 -62 17.5 -116.5t47.5 -95.5t71 -64.5t88 -23.5t88 23.5t71 64.5t47.5 95.5t17.5 116.5v400h100l-2 -400q0 -83 -25.5 -156t-69.5 -127t-102.5 -85.5t-125.5 -31.5t-125.5 31.5t-102.5 85.5t-69.5 127t-25.5 156v400h100v-400zM403 1000l-88 -160h-97l87 160
h98zM569 1000l-89 -160h-96l86 160h99z" />
    <glyph glyph-name="Uogonek" unicode="&#x172;" horiz-adv-x="788" 
d="M170 400q0 -62 17.5 -116.5t47.5 -95.5t71 -64.5t88 -23.5t88 23.5t71 64.5t47.5 95.5t17.5 116.5v400h100l-2 -400q0 -72 -19.5 -136.5t-53.5 -116t-80.5 -87.5t-100.5 -51l100 -151h-75l-95 142q-67 0 -125.5 31.5t-102 85.5t-69 127t-25.5 156v400h100v-400v0z" />
    <glyph glyph-name="uogonek" unicode="&#x173;" horiz-adv-x="788" 
d="M170 400q0 -62 17.5 -116.5t47.5 -95.5t71 -64.5t88 -23.5t88 23.5t71 64.5t47.5 95.5t17.5 116.5v400h100l-2 -400q0 -72 -19.5 -136.5t-53.5 -116t-80.5 -87.5t-100.5 -51l100 -151h-75l-95 142q-67 0 -125.5 31.5t-102 85.5t-69 127t-25.5 156v400h100v-400v0z" />
    <glyph glyph-name="Wcircumflex" unicode="&#x174;" horiz-adv-x="1064" 
d="M890 800h104l-298 -800l-167 300l-161 -300l-298 800h104l210 -556l141 261l152 -261zM459 842h-118l136 200h109l136 -200h-118l-72 102z" />
    <glyph glyph-name="wcircumflex" unicode="&#x175;" horiz-adv-x="1064" 
d="M890 800h104l-298 -800l-167 300l-161 -300l-298 800h104l210 -556l141 261l152 -261zM459 842h-118l136 200h109l136 -200h-118l-72 102z" />
    <glyph glyph-name="Ycircumflex" unicode="&#x176;" horiz-adv-x="776" 
d="M441 0h-100v205l-271 595h113l207 -464l206 464h110l-265 -601v-199zM315 842h-118l136 200h109l136 -200h-118l-72 102z" />
    <glyph glyph-name="ycircumflex" unicode="&#x177;" horiz-adv-x="606" 
d="M311 375l117 425h108l-231 -800h-111l62 200l-186 600h111zM230 842h-118l136 200h109l136 -200h-118l-72 102z" />
    <glyph glyph-name="Ydieresis" unicode="&#x178;" horiz-adv-x="776" 
d="M441 0h-100v205l-271 595h113l207 -464l206 464h110l-265 -601v-199zM243 892q0 21 14.5 35.5t35.5 14.5t35.5 -14.5t14.5 -35.5t-14.5 -35.5t-35.5 -14.5t-35.5 14.5t-14.5 35.5zM433 891q0 21 14.5 35.5t35.5 14.5t35.5 -14.5t14.5 -35.5t-14.5 -35.5t-35.5 -14.5
t-35.5 14.5t-14.5 35.5z" />
    <glyph glyph-name="Zacute" unicode="&#x179;" horiz-adv-x="596" 
d="M526 0h-456v100l346 600h-346v100h456v-101l-340 -599h340v-100zM427 940l-123 -100h-135l121 100h137z" />
    <glyph glyph-name="zacute" unicode="&#x17a;" horiz-adv-x="596" 
d="M526 0h-456v100l346 600h-346v100h456v-101l-340 -599h340v-100zM427 940l-123 -100h-135l121 100h137z" />
    <glyph glyph-name="Zdotaccent" unicode="&#x17b;" horiz-adv-x="596" 
d="M526 0h-456v100l346 600h-346v100h456v-101l-340 -599h340v-100zM248 892q0 21 14.5 35.5t35.5 14.5t35.5 -14.5t14.5 -35.5t-14.5 -35.5t-35.5 -14.5t-35.5 14.5t-14.5 35.5z" />
    <glyph glyph-name="zdotaccent" unicode="&#x17c;" horiz-adv-x="596" 
d="M526 0h-456v100l346 600h-346v100h456v-101l-340 -599h340v-100zM248 892q0 21 14.5 35.5t35.5 14.5t35.5 -14.5t14.5 -35.5t-14.5 -35.5t-35.5 -14.5t-35.5 14.5t-14.5 35.5z" />
    <glyph glyph-name="Zcaron" unicode="&#x17d;" horiz-adv-x="596" 
d="M526 0h-456v100l346 600h-346v100h456v-101l-340 -599h340v-100zM298 940l72 102h118l-136 -200h-109l-136 200h118z" />
    <glyph glyph-name="zcaron" unicode="&#x17e;" horiz-adv-x="596" 
d="M526 0h-456v100l346 600h-346v100h456v-101l-340 -599h340v-100zM298 940l72 102h118l-136 -200h-109l-136 200h118z" />
    <glyph glyph-name="florin" unicode="&#x192;" horiz-adv-x="590" 
d="M70 800h450v-100h-350v-400h250v-100h-250v-200h-100v800z" />
    <glyph glyph-name="AEacute" unicode="&#x1fc;" horiz-adv-x="885" 
d="M174 0h-104l294 800h450v-100h-350v-400h250v-100h-250v-100h351v-100h-451v200h-111zM286 300h78v233zM633 938l-123 -100h-135l121 100h137z" />
    <glyph glyph-name="aeacute" unicode="&#x1fd;" horiz-adv-x="885" 
d="M174 0h-104l294 800h450v-100h-350v-400h250v-100h-250v-100h351v-100h-451v200h-111zM286 300h78v233zM633 938l-123 -100h-135l121 100h137z" />
    <glyph glyph-name="Oslashacute" unicode="&#x1fe;" horiz-adv-x="940" 
d="M269 0h-118l61 94q-66 55 -104 134t-38 172q0 83 31.5 156t85.5 127t127 85.5t156 31.5q48 0 91.5 -10.5t83.5 -30.5l26 41h119l-62 -95q66 -55 104 -134t38 -171q0 -83 -31.5 -156t-85.5 -127t-127 -85.5t-156 -31.5q-93 0 -175 40zM772 399q0 66 -26.5 123.5
t-71.5 99.5l-325 -499q58 -25 122 -25q63 0 117.5 23.5t95.5 64.5t64.5 95.5t23.5 117.5zM170 399q0 -66 25.5 -123t70.5 -99l324 498q-56 25 -119 25t-117.5 -23.5t-95.5 -64.5t-64.5 -95.5t-23.5 -117.5zM590 938l-123 -100h-135l121 100h137z" />
    <glyph glyph-name="oslashacute" unicode="&#x1ff;" horiz-adv-x="740" 
d="M231 200h-117l52 80q-45 42 -70.5 98t-25.5 122q0 62 23.5 117t64 95.5t95.5 64t117 23.5t118 -25l16 25h117l-50 -77q46 -42 72.5 -99.5t26.5 -123.5q0 -62 -23.5 -117t-64 -95.5t-95.5 -64t-117 -23.5q-65 0 -122 26zM570 498q0 40 -15 75.5t-41 62.5l-212 -326
q31 -12 68 -12q41 0 77.5 16t63.5 43t43 63.5t16 77.5zM170 498q0 -38 13.5 -72.5t37.5 -60.5l211 323q-29 10 -62 10q-41 0 -77.5 -16t-63.5 -43t-43 -63.5t-16 -77.5zM170 100h400v-100h-400v100zM488 938l-123 -100h-135l121 100h137z" />
    <glyph glyph-name="uni0218" unicode="&#x218;" horiz-adv-x="664" 
d="M268 800q43 0 79.5 -16t61.5 -44l-74 -59q-13 14 -30.5 22t-39.5 8q-20 0 -37.5 -6.5t-31 -18t-21.5 -27.5t-8 -35v-5q0 -33 23 -54t68 -24q86 -5 149.5 -27t105 -57t61.5 -81t20 -100v-10q-2 -56 -26 -104.5t-64.5 -84.5t-93.5 -56.5t-113 -20.5q-66 0 -121.5 25.5
t-93.5 68.5l77 59q26 -29 61.5 -43t79.5 -14q39 0 74.5 13t62.5 36t43.5 54.5t17.5 68.5v7q0 50 -22.5 81.5t-58 49.5t-79 26.5t-86.5 12.5q-40 4 -73.5 17.5t-57.5 36t-37.5 52t-13.5 65.5v5q1 37 17.5 69.5t43.5 57t62.5 38.5t74.5 14zM270 -84q0 21 14.5 35.5t35.5 14.5
t35.5 -14.5t14.5 -35.5l-49 -150h-51v150z" />
    <glyph glyph-name="uni0219" unicode="&#x219;" horiz-adv-x="664" 
d="M268 800q43 0 79.5 -16t61.5 -44l-74 -59q-13 14 -30.5 22t-39.5 8q-20 0 -37.5 -6.5t-31 -18t-21.5 -27.5t-8 -35v-5q0 -33 23 -54t68 -24q86 -5 149.5 -27t105 -57t61.5 -81t20 -100v-10q-2 -56 -26 -104.5t-64.5 -84.5t-93.5 -56.5t-113 -20.5q-66 0 -121.5 25.5
t-93.5 68.5l77 59q26 -29 61.5 -43t79.5 -14q39 0 74.5 13t62.5 36t43.5 54.5t17.5 68.5v7q0 50 -22.5 81.5t-58 49.5t-79 26.5t-86.5 12.5q-40 4 -73.5 17.5t-57.5 36t-37.5 52t-13.5 65.5v5q1 37 17.5 69.5t43.5 57t62.5 38.5t74.5 14zM270 -84q0 21 14.5 35.5t35.5 14.5
t35.5 -14.5t14.5 -35.5l-49 -150h-51v150z" />
    <glyph glyph-name="uni0237" unicode="&#x237;" horiz-adv-x="541" 
d="M170 200q0 -42 29 -71t71 -29t71 29t29 71l1 600h100l-1 -600q0 -41 -16 -77.5t-43 -63.5t-63.5 -43t-77.5 -16t-77.5 16t-63.5 43t-43 63.5t-16 77.5h100z" />
    <glyph glyph-name="circumflex" unicode="&#x2c6;" horiz-adv-x="521" 
d="M188 842h-118l136 200h109l136 -200h-118l-72 102z" />
    <glyph glyph-name="caron" unicode="&#x2c7;" horiz-adv-x="521" 
d="M261 940l72 102h118l-136 -200h-109l-136 200h118z" />
    <glyph glyph-name="breve" unicode="&#x2d8;" horiz-adv-x="440" 
d="M170 992q0 -21 14.5 -35.5t35.5 -14.5t35.5 14.5t14.5 35.5h100q0 -31 -12 -58.5t-32.5 -47.5t-47.5 -32t-58 -12t-58.5 12t-47.5 32t-32 47.5t-12 58.5h100z" />
    <glyph glyph-name="dotaccent" unicode="&#x2d9;" 
d="M70 892q0 21 14.5 35.5t35.5 14.5t35.5 -14.5t14.5 -35.5t-14.5 -35.5t-35.5 -14.5t-35.5 14.5t-14.5 35.5z" />
    <glyph glyph-name="ring" unicode="&#x2da;" horiz-adv-x="440" 
d="M70 992q0 31 12 58t32 47.5t47.5 32.5t58.5 12t58 -12t47.5 -32.5t32.5 -47.5t12 -58t-12 -58.5t-32.5 -47.5t-47.5 -32t-58 -12t-58.5 12t-47.5 32t-32 47.5t-12 58.5zM170 992q0 -21 14.5 -35.5t35.5 -14.5t35.5 14.5t14.5 35.5t-14.5 35.5t-35.5 14.5t-35.5 -14.5
t-14.5 -35.5z" />
    <glyph glyph-name="ogonek" unicode="&#x2db;" horiz-adv-x="322" 
d="M147 12l105 -160h-75l-107 160h77z" />
    <glyph glyph-name="tilde" unicode="&#x2dc;" horiz-adv-x="447" 
d="M184 864q-29 10 -61 5t-52 -28l-1 102q34 14 71 19t74 -7q18 -6 39.5 -11.5t42.5 -8.5t41.5 -1t37.5 13l1 -99q-45 -10 -95 -4.5t-98 20.5z" />
    <glyph glyph-name="hungarumlaut" unicode="&#x2dd;" horiz-adv-x="491" 
d="M255 1000l-88 -160h-97l87 160h98zM421 1000l-89 -160h-96l86 160h99z" />
    <glyph glyph-name="Wgrave" unicode="&#x1e80;" horiz-adv-x="1064" 
d="M890 800h104l-298 -800l-167 300l-161 -300l-298 800h104l210 -556l141 261l152 -261zM540 940l121 -100h-135l-123 100h137z" />
    <glyph glyph-name="wgrave" unicode="&#x1e81;" horiz-adv-x="1064" 
d="M890 800h104l-298 -800l-167 300l-161 -300l-298 800h104l210 -556l141 261l152 -261zM540 940l121 -100h-135l-123 100h137z" />
    <glyph glyph-name="Wacute" unicode="&#x1e82;" horiz-adv-x="1064" 
d="M890 800h104l-298 -800l-167 300l-161 -300l-298 800h104l210 -556l141 261l152 -261zM661 940l-123 -100h-135l121 100h137z" />
    <glyph glyph-name="wacute" unicode="&#x1e83;" horiz-adv-x="1064" 
d="M890 800h104l-298 -800l-167 300l-161 -300l-298 800h104l210 -556l141 261l152 -261zM661 940l-123 -100h-135l121 100h137z" />
    <glyph glyph-name="Wdieresis" unicode="&#x1e84;" horiz-adv-x="1064" 
d="M890 800h104l-298 -800l-167 300l-161 -300l-298 800h104l210 -556l141 261l152 -261zM387 892q0 21 14.5 35.5t35.5 14.5t35.5 -14.5t14.5 -35.5t-14.5 -35.5t-35.5 -14.5t-35.5 14.5t-14.5 35.5zM577 891q0 21 14.5 35.5t35.5 14.5t35.5 -14.5t14.5 -35.5t-14.5 -35.5
t-35.5 -14.5t-35.5 14.5t-14.5 35.5z" />
    <glyph glyph-name="wdieresis" unicode="&#x1e85;" horiz-adv-x="1064" 
d="M890 800h104l-298 -800l-167 300l-161 -300l-298 800h104l210 -556l141 261l152 -261zM387 892q0 21 14.5 35.5t35.5 14.5t35.5 -14.5t14.5 -35.5t-14.5 -35.5t-35.5 -14.5t-35.5 14.5t-14.5 35.5zM577 891q0 21 14.5 35.5t35.5 14.5t35.5 -14.5t14.5 -35.5t-14.5 -35.5
t-35.5 -14.5t-35.5 14.5t-14.5 35.5z" />
    <glyph glyph-name="Ygrave" unicode="&#x1ef2;" horiz-adv-x="776" 
d="M441 0h-100v205l-271 595h113l207 -464l206 464h110l-265 -601v-199zM396 940l121 -100h-135l-123 100h137z" />
    <glyph glyph-name="ygrave" unicode="&#x1ef3;" horiz-adv-x="606" 
d="M311 375l117 425h108l-231 -800h-111l62 200l-186 600h111zM311 940l121 -100h-135l-123 100h137z" />
    <glyph glyph-name="figuredash" unicode="&#x2012;" horiz-adv-x="676" 
d="M70 450h536v-100h-536v100z" />
    <glyph glyph-name="endash" unicode="&#x2013;" horiz-adv-x="540" 
d="M70 450h400v-100h-400v100z" />
    <glyph glyph-name="emdash" unicode="&#x2014;" horiz-adv-x="676" 
d="M70 450h536v-100h-536v100z" />
    <glyph glyph-name="quoteleft" unicode="&#x2018;" 
d="M170 650q0 -21 -14.5 -35.5t-35.5 -14.5t-35.5 14.5t-14.5 35.5l23 150h51z" />
    <glyph glyph-name="quoteright" unicode="&#x2019;" 
d="M70 750q0 21 14.5 35.5t35.5 14.5t35.5 -14.5t14.5 -35.5l-23 -150h-51z" />
    <glyph glyph-name="quotesinglbase" unicode="&#x201a;" 
d="M70 150q0 21 14.5 35.5t35.5 14.5t35.5 -14.5t14.5 -35.5l-23 -150h-51z" />
    <glyph glyph-name="quotedblleft" unicode="&#x201c;" horiz-adv-x="398" 
d="M328 650q0 -21 -14.5 -35.5t-35.5 -14.5t-35.5 14.5t-14.5 35.5l23 150h51zM170 650q0 -21 -14.5 -35.5t-35.5 -14.5t-35.5 14.5t-14.5 35.5l23 150h51z" />
    <glyph glyph-name="quotedblright" unicode="&#x201d;" horiz-adv-x="398" 
d="M70 750q0 21 14.5 35.5t35.5 14.5t35.5 -14.5t14.5 -35.5l-23 -150h-51zM228 750q0 21 14.5 35.5t35.5 14.5t35.5 -14.5t14.5 -35.5l-23 -150h-51z" />
    <glyph glyph-name="quotedblbase" unicode="&#x201e;" horiz-adv-x="398" 
d="M70 150q0 21 14.5 35.5t35.5 14.5t35.5 -14.5t14.5 -35.5l-23 -150h-51zM228 150q0 21 14.5 35.5t35.5 14.5t35.5 -14.5t14.5 -35.5l-23 -150h-51z" />
    <glyph glyph-name="dagger" unicode="&#x2020;" horiz-adv-x="340" 
d="M70 700h50v100h100v-100h50v-100h-50v-600h-100v600h-50v100z" />
    <glyph glyph-name="daggerdbl" unicode="&#x2021;" horiz-adv-x="340" 
d="M70 200h50v400h-50v100h50v100h100v-100h50v-100h-50v-400h50v-100h-50v-100h-100v100h-50v100z" />
    <glyph glyph-name="bullet" unicode="&#x2022;" horiz-adv-x="440" 
d="M70 400q0 31 12 58t32 47.5t47.5 32.5t58.5 12t58 -12t47.5 -32.5t32.5 -47.5t12 -58t-12 -58.5t-32.5 -47.5t-47.5 -32t-58 -12t-58.5 12t-47.5 32t-32 47.5t-12 58.5z" />
    <glyph glyph-name="ellipsis" unicode="&#x2026;" horiz-adv-x="640" 
d="M70 50q0 21 14.5 35.5t35.5 14.5t35.5 -14.5t14.5 -35.5t-14.5 -35.5t-35.5 -14.5t-35.5 14.5t-14.5 35.5zM270 50q0 21 14.5 35.5t35.5 14.5t35.5 -14.5t14.5 -35.5t-14.5 -35.5t-35.5 -14.5t-35.5 14.5t-14.5 35.5zM470 50q0 21 14.5 35.5t35.5 14.5t35.5 -14.5
t14.5 -35.5t-14.5 -35.5t-35.5 -14.5t-35.5 14.5t-14.5 35.5z" />
    <glyph glyph-name="perthousand" unicode="&#x2030;" horiz-adv-x="1451" 
d="M444 0h-104l229 800h104zM70 600q0 41 16 77.5t43 63.5t63.5 43t77.5 16t77.5 -16t63.5 -43t43 -63.5t16 -77.5t-16 -77.5t-43 -63.5t-63.5 -43t-77.5 -16t-77.5 16t-63.5 43t-43 63.5t-16 77.5zM170 600q0 -42 29 -71t71 -29t71 29t29 71t-29 71t-71 29t-71 -29t-29 -71
zM543 200q0 41 16 77.5t43 63.5t63.5 43t77.5 16t77.5 -16t63.5 -43t43 -63.5t16 -77.5t-16 -77.5t-43 -63.5t-63.5 -43t-77.5 -16t-77.5 16t-63.5 43t-43 63.5t-16 77.5zM643 200q0 -42 29 -71t71 -29t71 29t29 71t-29 71t-71 29t-71 -29t-29 -71zM981 200q0 41 16 77.5
t43 63.5t63.5 43t77.5 16t77.5 -16t63.5 -43t43 -63.5t16 -77.5t-16 -77.5t-43 -63.5t-63.5 -43t-77.5 -16t-77.5 16t-63.5 43t-43 63.5t-16 77.5zM1081 200q0 -42 29 -71t71 -29t71 29t29 71t-29 71t-71 29t-71 -29t-29 -71z" />
    <glyph glyph-name="guilsinglleft" unicode="&#x2039;" horiz-adv-x="389" 
d="M70 402l129 198h118l-129 -198l131 -202h-118z" />
    <glyph glyph-name="guilsinglright" unicode="&#x203a;" horiz-adv-x="389" 
d="M188 200h-118l131 202l-129 198h118l129 -198z" />
    <glyph glyph-name="lira" unicode="&#x20a4;" horiz-adv-x="640" 
d="M70 446h50v154q0 41 16 77.5t43 63.5t63.5 43t77.5 16t77.5 -16t63.5 -43t43 -63.5t16 -77.5h-100q0 42 -29 71t-71 29t-71 -29t-29 -71v-154h50v-92h-50v-54h50v-100h-50v-100h350v-100h-450v200h-50v100h50v54h-50v92z" />
    <glyph glyph-name="Euro" unicode="&#x20ac;" horiz-adv-x="889" 
d="M70 552h80q22 54 59.5 99.5t85.5 78.5t105 51.5t120 18.5q90 0 166.5 -36t132.5 -98l-74 -66q-42 47 -99.5 73.5t-124.5 26.5q-84 0 -152.5 -40.5t-107.5 -107.5h209v-100h-246q-2 -13 -3 -26t-1 -27q0 -25 3 -47h147v-100h-112q19 -35 46.5 -63t61.5 -48.5t73 -31.5
t82 -11q68 0 125.5 27t99.5 74l73 -65q-56 -62 -132.5 -98t-166.5 -36q-63 0 -121 18.5t-106.5 52t-85.5 79.5t-59 102h-78v100h53q-3 22 -3 48t3 52h-53v100z" />
    <glyph glyph-name="uni2116" unicode="&#x2116;" horiz-adv-x="1389" 
d="M170 603v-603h-100v800h102l347 -599v599h100v-800h-100zM719 500q0 62 23.5 117t64 95.5t95.5 64t117 23.5t117 -23.5t95.5 -64t64 -95.5t23.5 -117t-23.5 -117t-64 -95.5t-95.5 -64t-117 -23.5t-117 23.5t-95.5 64t-64 95.5t-23.5 117zM819 498q0 -41 16 -77.5
t43 -63.5t63.5 -43t77.5 -16t77.5 16t63.5 43t43 63.5t16 77.5t-16 77.5t-43 63.5t-63.5 43t-77.5 16t-77.5 -16t-63.5 -43t-43 -63.5t-16 -77.5zM819 100h400v-100h-400v100z" />
    <glyph glyph-name="trademark" unicode="&#x2122;" horiz-adv-x="565" 
d="M495 500h-72v125l-62 -81l-63 81v-125h-71v230h-33v-230h-72v230h-52v70h185l106 -138l133 138z" />
    <glyph glyph-name="minus" unicode="&#x2212;" horiz-adv-x="540" 
d="M70 450h400v-100h-400v100z" />
    <glyph glyph-name="lessequal" unicode="&#x2264;" horiz-adv-x="640" 
d="M379 800h118l-259 -398l197 -302h135v-100h-500v100h246l-196 302z" />
    <glyph glyph-name="greaterequal" unicode="&#x2265;" horiz-adv-x="640" 
d="M520 402l-196 -302h246v-100h-500v100h135l197 302l-259 398h118z" />
    <glyph glyph-name="uniF6C3" unicode="&#xf6c3;" 
d="M70 -92q0 21 14.5 35.5t35.5 14.5t35.5 -14.5t14.5 -35.5l-49 -150h-51v150z" />
    <glyph glyph-name="glyph352" 
d="M70 550q0 21 14.5 35.5t35.5 14.5t35.5 -14.5t14.5 -35.5t-14.5 -35.5t-35.5 -14.5t-35.5 14.5t-14.5 35.5z" />
    <glyph glyph-name="glyph353" horiz-adv-x="740" 
d="M70 500q0 62 23.5 117t64 95.5t95.5 64t117 23.5t117 -23.5t95.5 -64t64 -95.5t23.5 -117t-23.5 -117t-64 -95.5t-95.5 -64t-117 -23.5t-117 23.5t-95.5 64t-64 95.5t-23.5 117zM170 498q0 -41 16 -77.5t43 -63.5t63.5 -43t77.5 -16t77.5 16t63.5 43t43 63.5t16 77.5
t-16 77.5t-43 63.5t-63.5 43t-77.5 16t-77.5 -16t-63.5 -43t-43 -63.5t-16 -77.5z" />
    <glyph glyph-name="glyph354" horiz-adv-x="540" 
d="M70 600q0 41 16 77.5t43 63.5t63.5 43t77.5 16t77.5 -16t63.5 -43t43 -63.5t16 -77.5t-16 -77.5t-43 -63.5t-63.5 -43t-77.5 -16t-77.5 16t-63.5 43t-43 63.5t-16 77.5zM170 600q0 -42 29 -71t71 -29t71 29t29 71t-29 71t-71 29t-71 -29t-29 -71z" />
    </font>
</defs>
</svg>
